<?xml version="1.0" standalone="no"?>
<!DOCTYPE svg PUBLIC "-//W3C//DTD SVG 20010904//EN"
 "http://www.w3.org/TR/2001/REC-SVG-20010904/DTD/svg10.dtd">
<svg version="1.0" xmlns="http://www.w3.org/2000/svg"
 width="16.000000pt" height="16.000000pt" viewBox="0 0 16.000000 16.000000"
 preserveAspectRatio="xMidYMid meet">
<metadata>
Created by potrace 1.11, written by Peter Selinger 2001-2013
</metadata>
<g transform="translate(0.000000,16.000000) scale(0.000893,-0.000893)"
fill="#000000" stroke="none">
<path d="M8659 13736 c-2 -2 -69 -7 -149 -11 -80 -3 -161 -8 -180 -10 -19 -1
-71 -6 -115 -10 -122 -10 -177 -15 -210 -19 -16 -3 -50 -7 -75 -10 -25 -3 -61
-8 -80 -11 -19 -3 -55 -8 -80 -11 -25 -3 -56 -7 -70 -10 -14 -3 -41 -7 -60 -9
-19 -3 -46 -7 -60 -10 -14 -2 -49 -10 -78 -16 -29 -6 -60 -8 -68 -5 -8 3 -14
2 -14 -3 0 -5 -21 -12 -47 -16 -27 -3 -95 -18 -153 -31 -57 -14 -117 -26 -132
-27 -15 -1 -28 -4 -28 -7 0 -3 -8 -6 -18 -7 -23 -2 -158 -36 -247 -62 -38 -12
-79 -23 -90 -25 -58 -12 -485 -148 -550 -175 -11 -5 -51 -20 -90 -34 -38 -15
-83 -32 -100 -38 -16 -7 -34 -13 -40 -14 -18 -5 -347 -146 -422 -181 -40 -19
-77 -34 -83 -34 -5 0 -10 -4 -10 -10 0 -5 -4 -10 -10 -10 -16 0 -225 -102
-228 -111 -2 -5 -10 -9 -17 -9 -7 0 -49 -20 -93 -45 -44 -25 -84 -45 -90 -45
-6 0 -12 -3 -14 -7 -1 -5 -21 -17 -43 -28 -22 -11 -70 -39 -108 -62 -37 -24
-70 -43 -73 -43 -3 0 -26 -13 -51 -30 -24 -16 -46 -30 -48 -30 -8 0 -199 -123
-213 -137 -7 -7 -17 -13 -22 -13 -5 0 -15 -6 -22 -13 -7 -7 -38 -28 -68 -47
-30 -19 -59 -38 -65 -42 -56 -44 -148 -108 -154 -108 -5 0 -11 -7 -15 -15 -3
-8 -12 -15 -20 -15 -8 0 -16 -3 -18 -7 -1 -5 -30 -28 -63 -52 -33 -25 -69 -53
-80 -63 -11 -9 -71 -58 -134 -108 -63 -50 -148 -121 -189 -158 -41 -37 -85
-76 -99 -87 -28 -22 -219 -203 -317 -301 -50 -50 -261 -272 -316 -334 -58 -64
-264 -312 -300 -359 -14 -19 -30 -39 -35 -45 -50 -53 -314 -423 -404 -566 -33
-52 -64 -99 -69 -105 -23 -28 -121 -195 -115 -195 5 0 0 -5 -9 -11 -10 -5 -18
-15 -18 -21 0 -9 -66 -125 -118 -208 -9 -14 -17 -29 -18 -35 -1 -5 -13 -30
-27 -55 -14 -25 -40 -74 -58 -110 -18 -36 -39 -73 -47 -82 -8 -10 -12 -18 -9
-18 4 0 -6 -26 -22 -58 -49 -94 -131 -273 -131 -283 0 -5 -4 -9 -8 -9 -5 0 -9
-6 -9 -12 0 -14 -25 -75 -51 -123 -9 -16 -15 -31 -14 -33 1 -1 -5 -19 -13 -39
-9 -20 -18 -47 -21 -60 -4 -13 -9 -23 -13 -23 -4 0 -8 -6 -9 -12 0 -7 -28 -87
-62 -178 -61 -164 -177 -512 -186 -560 -2 -14 -7 -32 -10 -40 -6 -17 -64 -235
-69 -263 -2 -9 -6 -21 -9 -25 -3 -5 -7 -21 -10 -37 -11 -62 -29 -143 -45 -207
-5 -20 -6 -39 -3 -42 2 -3 0 -11 -6 -18 -5 -7 -13 -33 -16 -58 -7 -50 -14 -85
-16 -85 -1 0 -3 -16 -5 -36 -1 -20 -6 -49 -9 -65 -11 -51 -16 -78 -21 -123
-10 -84 -12 -85 -98 -127 -45 -21 -83 -42 -85 -46 -2 -5 -8 -8 -14 -8 -6 0
-26 -11 -44 -25 -18 -14 -36 -25 -40 -25 -3 0 -21 -12 -38 -27 -18 -16 -45
-38 -60 -50 -88 -68 -230 -232 -280 -323 -11 -19 -22 -37 -25 -40 -15 -12
-107 -230 -103 -243 1 -4 -4 -20 -12 -35 -12 -24 -17 -44 -32 -132 -3 -14 -7
-36 -10 -50 -12 -56 -10 -299 3 -380 7 -47 15 -95 16 -108 2 -12 7 -25 10 -29
4 -3 7 -16 7 -28 0 -11 5 -26 12 -33 7 -7 8 -12 4 -12 -5 0 -3 -7 4 -15 7 -8
10 -15 7 -15 -12 0 60 -155 111 -240 28 -47 71 -112 97 -145 47 -62 211 -225
226 -225 4 0 15 -7 24 -17 39 -39 276 -170 319 -177 6 -1 16 -4 21 -7 10 -6
60 -20 70 -19 3 0 21 -6 40 -14 19 -8 35 -13 35 -12 0 2 17 0 38 -5 20 -6 62
-13 92 -17 66 -8 4184 -10 4220 -1 14 3 32 8 40 12 8 3 37 13 63 23 109 39
224 143 295 267 28 48 64 155 57 167 -3 5 -1 11 4 14 13 8 6 182 -9 240 -21
79 -70 166 -129 228 l-35 38 -1 152 c-1 84 -4 162 -7 173 -3 11 -11 40 -18 65
-23 85 -53 165 -82 215 -16 27 -34 62 -41 78 -6 15 -15 27 -19 27 -4 0 -14 13
-22 29 -22 43 -156 173 -223 216 -32 21 -59 39 -61 41 -3 2 39 219 54 277 2 9
6 27 9 38 2 12 16 63 31 113 15 50 27 97 27 104 0 6 3 12 7 12 3 0 6 8 7 18 1
18 78 228 109 297 10 22 18 42 19 45 2 7 25 59 65 145 18 39 41 82 52 98 11
15 17 27 14 27 -6 0 99 181 150 260 16 25 33 53 39 62 23 39 180 255 194 268
4 3 33 39 66 80 109 136 381 401 545 530 36 28 73 57 83 65 9 8 19 15 22 15 3
0 25 15 49 34 52 39 257 170 336 214 96 52 382 192 395 192 3 0 25 8 48 19 39
17 179 70 202 75 6 2 17 6 25 9 33 13 290 86 330 94 14 3 30 6 35 7 48 11 74
16 95 20 14 3 36 8 50 11 14 3 40 7 58 10 17 3 49 8 70 11 20 3 55 7 77 10 22
2 56 6 75 9 203 24 640 24 783 -1 15 -2 53 -6 85 -9 31 -2 57 -5 57 -5 0 -3
42 -11 80 -15 22 -3 51 -7 65 -10 14 -3 45 -10 70 -15 25 -6 56 -12 70 -14 55
-10 240 -60 340 -92 30 -10 57 -18 60 -19 3 -1 12 -4 20 -8 8 -3 60 -22 115
-42 54 -20 124 -48 155 -61 66 -30 347 -170 375 -187 11 -7 43 -27 72 -44 30
-18 58 -33 63 -33 6 0 10 -4 10 -10 0 -5 6 -10 14 -10 7 0 19 -7 26 -15 7 -9
28 -23 46 -31 19 -9 34 -20 34 -25 0 -5 5 -9 10 -9 6 0 16 -4 23 -10 57 -46
76 -60 85 -60 6 0 12 -3 14 -7 2 -5 46 -42 98 -84 135 -108 265 -229 411 -385
45 -48 217 -256 252 -304 9 -14 36 -52 60 -85 123 -171 295 -476 369 -655 6
-14 14 -32 18 -41 5 -9 27 -65 50 -125 23 -60 47 -122 53 -139 6 -16 12 -34
13 -40 1 -5 16 -57 33 -114 l31 -104 -22 -19 c-185 -157 -317 -353 -398 -586
-17 -52 -33 -101 -35 -110 -2 -9 -8 -37 -14 -62 -25 -112 -34 -343 -16 -455 4
-27 9 -59 10 -70 2 -11 4 -20 5 -20 1 0 3 -11 6 -25 25 -139 147 -383 259
-515 97 -115 233 -232 355 -304 52 -30 197 -101 209 -101 5 0 31 -9 57 -20 26
-11 63 -23 83 -26 20 -3 39 -8 42 -10 4 -2 24 -6 44 -10 21 -3 47 -9 59 -12
11 -4 957 -8 2102 -9 1767 -3 2087 -1 2127 11 26 8 47 12 47 9 0 -3 6 -1 13 4
6 6 23 13 37 16 39 9 139 78 194 132 67 67 118 149 147 237 30 92 33 251 6
339 -21 68 -78 164 -130 218 -33 35 -37 43 -31 78 12 73 4 271 -12 313 -3 8
-8 26 -10 40 -13 67 -67 197 -106 253 -11 15 -16 27 -11 27 4 0 3 4 -2 8 -6 4
-22 23 -35 42 -23 34 -195 210 -205 210 -3 0 -29 14 -58 33 -60 38 -129 72
-139 69 -5 -1 -8 2 -8 8 0 6 -3 9 -7 8 -5 -1 -27 4 -50 12 -36 11 -43 18 -44
39 -1 37 -11 135 -25 241 -2 19 -6 56 -9 82 -5 50 -14 115 -21 158 -3 14 -6
34 -8 45 -2 11 -6 40 -10 65 -4 25 -9 56 -11 70 -3 14 -7 41 -10 60 -6 32 -15
77 -46 225 -6 28 -12 59 -14 70 -2 11 -4 22 -5 25 -1 3 -2 9 -1 14 1 5 -1 16
-5 25 -4 9 -9 25 -11 36 -7 33 -11 50 -13 55 -1 3 -2 9 -1 14 1 4 -4 14 -10
22 -6 8 -9 14 -6 14 4 0 0 18 -8 39 -7 22 -11 42 -8 44 3 3 1 12 -3 19 -5 7
-9 18 -10 23 -3 21 -55 204 -74 265 -12 36 -24 76 -26 89 -3 14 -8 29 -12 35
-3 6 -8 20 -10 31 -1 11 -19 65 -38 120 -20 55 -47 132 -61 170 -38 107 -172
441 -211 525 -19 41 -44 98 -57 125 -13 28 -24 53 -24 57 -6 32 -335 644 -411
762 -8 13 -30 48 -48 77 -18 30 -46 74 -62 99 -16 25 -34 55 -39 66 -5 12 -13
23 -18 25 -4 2 -15 16 -23 30 -16 28 -91 141 -100 149 -3 3 -9 12 -15 21 -19
31 -99 144 -105 149 -3 3 -17 21 -30 40 -13 19 -27 37 -30 40 -4 3 -35 43 -70
90 -55 72 -84 108 -175 216 -5 7 -26 31 -45 55 -157 192 -461 508 -671 699
-51 47 -116 106 -144 131 -27 25 -61 55 -74 65 -13 10 -28 24 -35 29 -6 6 -49
42 -96 80 -93 75 -104 84 -137 115 -13 11 -25 20 -28 20 -2 0 -50 35 -107 78
-139 106 -246 182 -257 182 -5 0 -11 3 -13 8 -1 4 -46 36 -98 71 -52 36 -96
68 -98 73 -2 4 -8 8 -14 8 -6 0 -90 49 -187 108 -97 59 -187 113 -201 120 -29
14 -94 50 -212 117 -46 26 -88 48 -94 49 -7 1 -19 8 -28 15 -9 7 -16 10 -16 5
0 -5 -4 -4 -8 1 -4 6 -59 35 -122 65 -63 30 -118 59 -121 63 -3 5 -8 7 -11 5
-3 -1 -31 9 -64 24 -161 73 -213 95 -384 162 -160 63 -218 85 -240 91 -3 1
-12 4 -20 8 -70 28 -337 115 -440 142 -8 2 -55 16 -105 31 -81 23 -207 57
-260 69 -11 2 -31 7 -45 10 -14 3 -36 8 -50 11 -14 2 -32 7 -40 11 -8 3 -22 7
-30 8 -8 1 -28 5 -45 9 -94 19 -279 55 -305 60 -14 2 -54 9 -89 16 -34 6 -66
9 -69 6 -3 -3 -11 -1 -18 4 -6 6 -16 10 -20 8 -8 -2 -68 6 -139 19 -32 5 -74
11 -145 18 -25 2 -65 7 -90 10 -25 3 -81 7 -124 10 -44 3 -84 9 -89 14 -5 5
-22 5 -37 1 -16 -5 -30 -6 -32 -4 -12 11 -808 30 -819 20z m601 -401 c217 -11
367 -21 416 -30 11 -1 50 -6 87 -10 37 -4 67 -11 67 -16 0 -4 -10 -6 -22 -3
-13 2 -45 7 -73 9 -27 2 -68 6 -90 9 -200 24 -610 33 -985 21 -232 -7 -253 -8
-380 -19 -41 -4 -97 -9 -125 -11 -54 -5 -134 -14 -175 -20 -14 -2 -50 -7 -80
-10 -30 -3 -73 -8 -95 -11 -28 -3 -35 -2 -25 5 8 5 44 12 80 16 36 4 76 9 90
10 14 2 52 6 85 9 33 4 77 9 97 12 70 10 96 12 190 19 51 4 109 9 128 11 19 1
131 5 249 8 118 3 216 7 217 9 4 4 177 0 344 -8z m675 -60 c28 -3 66 -9 85
-12 19 -3 43 -6 53 -7 9 0 17 -4 17 -9 0 -5 -15 -7 -32 -3 -18 3 -51 8 -73 11
-22 3 -49 7 -60 9 -11 3 -35 5 -52 5 -18 1 -33 5 -33 10 0 5 10 8 23 6 12 -2
45 -6 72 -10z m-2179 -34 c-3 -4 -19 -8 -36 -9 -16 0 -35 -4 -42 -8 -6 -4 -23
-8 -37 -10 -24 -2 -44 -5 -108 -18 -13 -3 -23 -1 -23 5 0 5 6 9 13 10 6 0 19
2 27 4 8 1 49 8 90 14 41 7 75 13 77 14 6 7 43 5 39 -2z m2439 -6 c17 -3 41
-7 55 -10 14 -2 39 -7 55 -10 17 -3 40 -7 53 -10 35 -8 55 -12 95 -19 20 -4
37 -10 37 -15 0 -4 -37 0 -82 10 -46 10 -103 21 -128 25 -25 3 -48 8 -51 10
-4 2 -31 6 -60 10 -30 3 -58 11 -64 16 -7 7 1 8 25 4 19 -4 49 -9 65 -11z
m-2696 -40 c-5 -4 -110 -28 -179 -41 -14 -3 -32 -7 -40 -9 -8 -2 -30 -7 -49
-10 -19 -3 -42 -10 -51 -15 -10 -5 -19 -7 -21 -5 -3 2 -36 -5 -74 -15 -38 -10
-72 -17 -74 -14 -8 7 2 10 94 33 125 30 119 29 156 35 19 3 79 16 134 29 93
21 115 24 104 12z m3150 -51 c19 -3 45 -10 58 -15 13 -5 23 -5 23 -2 0 4 5 2
12 -5 7 -7 25 -12 40 -12 15 0 28 -5 28 -11 0 -6 -8 -8 -17 -6 -10 3 -43 12
-73 21 -30 8 -73 18 -95 22 -22 4 -44 8 -50 10 -14 4 -59 12 -67 13 -5 1 -8 5
-8 10 0 4 26 2 58 -5 31 -8 72 -17 91 -20z m348 -89 c190 -55 187 -54 180 -62
-4 -3 -19 -1 -34 5 -34 13 -189 60 -220 67 -13 3 -33 8 -45 11 -13 3 -28 6
-35 8 -17 3 -29 16 -15 16 6 0 82 -20 169 -45z m-4010 24 c-9 -6 -26 -12 -37
-15 -31 -6 -52 -12 -87 -23 -18 -5 -33 -6 -33 -1 0 4 10 10 23 13 12 3 45 12
72 20 61 19 88 21 62 6z m-172 -49 c-3 -5 -10 -10 -16 -10 -5 0 -9 5 -9 10 0
6 7 10 16 10 8 0 12 -4 9 -10z m-35 -12 c0 -6 -3 -9 -6 -5 -3 3 -18 1 -33 -5
-14 -5 -33 -11 -41 -13 -8 -2 -51 -16 -95 -30 -44 -15 -87 -28 -95 -30 -22 -6
-180 -61 -215 -76 -16 -7 -32 -13 -35 -14 -24 -6 -59 -18 -75 -25 -11 -5 -94
-39 -185 -76 -91 -36 -169 -69 -175 -72 -5 -4 -12 -7 -15 -8 -17 -3 -113 -48
-292 -136 -111 -56 -206 -101 -210 -100 -5 1 -8 -3 -8 -8 0 -6 -4 -10 -8 -10
-13 0 -221 -114 -301 -164 -22 -15 -43 -26 -46 -26 -10 0 -193 -118 -213 -138
-8 -7 -17 -10 -22 -7 -5 3 -10 1 -12 -3 -1 -4 -30 -26 -63 -47 -33 -22 -61
-43 -63 -47 -2 -5 -9 -8 -15 -8 -7 0 -24 -10 -39 -23 -15 -12 -53 -40 -84 -62
-68 -48 -224 -164 -240 -179 -7 -6 -24 -20 -40 -31 -15 -11 -42 -32 -60 -47
-17 -16 -34 -28 -37 -28 -4 0 -17 -10 -29 -22 -13 -13 -48 -43 -78 -68 -284
-237 -649 -596 -870 -855 -24 -27 -47 -51 -51 -53 -5 -2 -9 -8 -9 -13 0 -6 -9
-20 -21 -32 -61 -65 -168 -200 -291 -367 -43 -58 -82 -110 -88 -117 -19 -22
-216 -318 -256 -383 -21 -36 -45 -71 -51 -78 -7 -7 -13 -20 -13 -28 0 -8 -4
-14 -9 -14 -5 0 -12 -9 -16 -20 -6 -20 -67 -126 -83 -145 -4 -5 -15 -25 -22
-42 -8 -18 -19 -33 -23 -33 -5 0 -6 -4 -2 -9 3 -5 1 -12 -5 -16 -6 -3 -19 -23
-29 -43 -10 -20 -57 -113 -105 -207 -47 -93 -104 -212 -127 -265 -23 -52 -49
-108 -57 -125 -9 -16 -17 -32 -17 -35 -1 -3 -6 -16 -12 -30 -6 -14 -19 -45
-28 -70 -9 -25 -25 -63 -35 -85 -9 -22 -32 -79 -50 -127 -19 -49 -37 -88 -41
-88 -7 0 58 178 80 218 5 9 10 22 11 27 14 62 263 601 285 617 5 4 7 8 3 8 -4
0 4 21 19 48 14 26 44 81 66 122 22 41 51 92 64 113 13 20 21 37 18 37 -3 0
-1 6 5 13 10 10 120 192 154 252 6 11 21 34 34 52 12 17 22 34 22 37 0 3 6 14
14 23 8 10 58 83 111 163 54 80 100 147 104 150 4 3 41 52 83 110 42 58 86
116 97 130 11 14 49 62 85 108 36 45 71 88 78 96 7 7 31 35 53 61 22 27 49 59
60 71 11 12 43 48 70 79 152 173 427 447 585 585 34 30 77 69 95 85 43 41 133
117 159 134 12 8 23 17 26 20 11 13 160 130 240 189 47 34 95 71 108 81 12 11
22 17 22 15 0 -3 19 10 43 29 55 45 285 197 297 197 6 0 10 4 10 9 0 5 14 14
30 21 17 7 30 16 30 21 0 5 5 9 11 9 6 0 23 8 37 19 15 10 47 29 72 43 25 14
79 45 120 70 41 24 113 64 160 89 47 24 87 46 90 49 3 3 55 30 115 59 248 121
361 174 373 174 6 0 12 3 12 7 0 3 17 12 38 19 20 8 59 24 86 37 28 13 55 24
60 24 6 0 22 6 36 13 14 7 54 24 90 37 36 13 70 26 75 30 9 6 71 29 100 37 6
1 53 17 105 36 52 19 104 38 115 42 11 3 30 11 43 16 13 5 32 9 42 9 11 0 20
4 20 9 0 5 8 8 18 6 9 -1 22 0 27 4 10 6 113 39 128 40 4 1 7 -4 7 -11z m4478
-45 c7 -7 11 -13 9 -13 -8 0 -77 30 -77 34 0 8 56 -9 68 -21z m42 -13 c0 -5
-4 -10 -10 -10 -5 0 -10 5 -10 10 0 6 5 10 10 10 6 0 10 -4 10 -10z m70 -20
c63 -20 251 -90 269 -100 12 -6 21 -8 21 -4 0 3 6 2 13 -4 6 -6 14 -10 17 -10
3 0 23 -7 44 -16 21 -9 59 -23 83 -31 24 -8 63 -25 86 -37 23 -11 43 -20 44
-20 7 4 33 -11 33 -19 0 -5 -8 -5 -17 0 -24 14 -73 34 -168 71 -44 17 -84 35
-90 38 -5 4 -13 7 -17 8 -5 1 -9 2 -10 4 -2 1 -10 3 -18 5 -8 2 -53 18 -100
35 -47 18 -116 43 -155 57 -38 14 -77 29 -85 35 -12 7 -10 8 5 3 11 -4 31 -11
45 -15z m644 -247 c4 -5 11 -8 14 -9 15 -1 277 -124 397 -185 266 -137 626
-341 633 -361 2 -4 8 -8 13 -8 5 0 56 -31 112 -69 56 -37 107 -70 112 -71 6
-2 40 -27 77 -54 37 -28 90 -67 118 -86 28 -19 57 -39 63 -45 7 -5 28 -22 49
-37 20 -15 42 -33 50 -40 7 -8 57 -47 112 -88 54 -41 101 -80 103 -87 3 -7 10
-13 17 -13 6 0 34 -22 63 -48 28 -26 80 -72 114 -102 202 -179 499 -475 644
-644 33 -38 71 -81 84 -95 13 -14 40 -46 60 -71 20 -25 38 -47 41 -50 3 -3 24
-27 45 -55 22 -27 43 -52 46 -55 3 -3 25 -32 50 -65 24 -33 49 -65 54 -71 25
-29 45 -55 45 -58 0 -3 30 -44 66 -92 37 -49 101 -140 143 -204 41 -63 78
-117 82 -120 3 -3 16 -23 28 -45 25 -48 112 -188 120 -195 3 -3 11 -14 17 -25
36 -68 50 -91 59 -97 6 -4 6 -8 1 -8 -5 0 -2 -8 6 -17 24 -28 89 -153 80 -153
-5 0 -14 12 -21 28 -7 15 -56 101 -109 190 -53 90 -105 178 -116 195 -10 18
-21 34 -25 37 -3 3 -13 19 -21 35 -8 17 -17 32 -21 35 -3 3 -27 39 -55 80 -27
41 -52 77 -57 78 -4 2 -5 7 -2 12 2 4 -4 15 -15 25 -11 10 -20 24 -20 31 0 7
-4 14 -8 16 -5 2 -47 55 -94 118 -91 123 -219 292 -228 300 -3 3 -27 32 -54
65 -27 33 -54 65 -60 70 -6 6 -24 26 -40 45 -179 219 -596 636 -821 822 -57
47 -96 80 -117 101 -10 9 -22 17 -27 17 -5 0 -11 4 -13 8 -1 5 -39 36 -83 70
-44 34 -89 70 -100 80 -11 9 -45 35 -75 57 -30 22 -61 45 -68 52 -7 7 -17 13
-21 13 -4 0 -19 10 -32 21 -36 32 -347 239 -359 239 -5 0 -10 4 -10 8 0 5 -12
15 -27 23 -16 7 -46 25 -68 40 -39 26 -70 44 -165 97 -25 14 -56 32 -70 41
-14 9 -43 25 -65 36 -22 11 -42 22 -45 25 -3 3 -23 14 -45 25 -22 11 -83 44
-137 73 -53 28 -104 52 -112 52 -9 0 -16 5 -16 10 0 6 -5 10 -11 10 -6 0 -73
29 -149 65 -76 36 -143 65 -149 65 -6 0 -11 5 -11 10 0 12 13 13 24 3z m-3246
-58 c-3 -3 -63 -7 -134 -9 -81 -2 -101 -1 -54 3 115 9 194 12 188 6z m240 -2
c-43 -2 -113 -2 -155 0 -43 1 -8 3 77 3 85 0 120 -2 78 -3z m125 0 c-7 -2 -21
-2 -30 0 -10 3 -4 5 12 5 17 0 24 -2 18 -5z m187 -10 c7 -7 -150 1 -162 8 -6
4 27 4 73 2 46 -3 86 -7 89 -10z m-839 -2 c-7 -4 -40 -9 -73 -10 -34 -1 -65
-4 -70 -7 -4 -3 -8 -1 -8 5 0 9 26 12 134 17 16 1 23 -1 17 -5z m889 -1 c0 -4
-7 -7 -15 -6 -23 3 -26 12 -5 13 11 1 20 -2 20 -7z m169 -15 c3 -3 -31 -3 -74
1 -44 4 -82 9 -85 12 -3 2 31 2 74 -2 43 -3 82 -8 85 -11z m-1289 -4 c0 -4
-10 -7 -22 -7 -26 -1 -121 -12 -158 -18 -49 -10 -132 -15 -125 -8 4 4 16 8 28
8 12 1 42 4 67 7 25 4 72 10 105 13 33 4 61 7 62 8 7 6 43 3 43 -3z m58 2
c-10 -2 -26 -2 -35 0 -10 3 -2 5 17 5 19 0 27 -2 18 -5z m1286 -4 c-4 -7 -44
0 -44 7 0 2 11 3 24 2 14 -1 23 -5 20 -9z m66 -5 c0 -2 -12 -4 -27 -4 -21 0
-24 3 -14 9 13 8 41 5 41 -5z m183 -23 c5 -5 -18 -4 -50 1 -80 12 -91 19 -18
12 33 -3 64 -9 68 -13z m-1943 -14 c0 -5 -9 -7 -20 -4 -11 3 -20 2 -20 -1 0
-4 -16 -8 -36 -10 -19 -1 -44 -7 -55 -12 -14 -8 -19 -7 -19 3 0 7 12 14 28 15
15 1 40 6 56 10 38 10 66 10 66 -1z m30 3 c0 -5 -2 -10 -4 -10 -3 0 -8 5 -11
10 -3 6 -1 10 4 10 6 0 11 -4 11 -10z m2028 -5 c3 -3 -12 -3 -33 0 -21 2 -40
7 -43 10 -3 3 11 4 32 1 21 -3 41 -7 44 -11z m69 -8 c10 -11 -30 -8 -47 3 -11
7 -8 8 13 6 15 -1 30 -6 34 -9z m89 -11 c7 -1 16 -5 20 -8 3 -4 -9 -4 -28 -1
-18 3 -38 6 -45 7 -7 1 -16 6 -20 10 -4 5 7 5 26 1 18 -4 40 -8 47 -9z m-2376
-5 c0 -4 -10 -7 -22 -8 -19 0 -61 -7 -113 -17 -5 -1 -19 -5 -30 -9 -11 -3 -36
-8 -55 -11 -44 -7 -77 -14 -98 -20 -9 -3 -32 -8 -51 -11 -19 -3 -37 -8 -41
-10 -4 -2 -20 -7 -36 -10 -16 -3 -53 -11 -81 -19 -29 -8 -53 -12 -53 -9 0 3
-7 0 -15 -7 -8 -7 -15 -10 -15 -7 0 3 -15 1 -32 -4 -18 -6 -41 -12 -51 -14
-26 -6 -213 -64 -279 -86 -31 -11 -65 -22 -75 -24 -24 -5 -187 -64 -288 -104
-44 -18 -87 -34 -95 -36 -16 -4 -54 -19 -135 -56 -27 -12 -53 -23 -56 -23 -3
-1 -28 -11 -55 -23 -27 -12 -56 -24 -64 -27 -8 -3 -22 -10 -30 -15 -8 -5 -94
-47 -190 -95 -218 -107 -321 -163 -497 -269 -51 -30 -93 -52 -93 -48 0 8 167
109 330 199 227 125 591 297 755 358 28 10 53 22 56 27 3 5 8 8 10 6 5 -2 47
9 74 21 11 5 61 23 110 41 50 17 106 38 125 45 19 8 44 16 55 18 11 3 40 12
65 21 25 9 53 18 64 20 10 3 53 15 95 29 73 23 149 45 181 51 8 2 44 11 80 20
36 9 72 18 80 20 8 2 67 15 130 29 63 14 129 28 145 31 17 3 59 11 95 18 83
16 100 17 100 8z m2434 -9 c3 -5 -1 -9 -9 -9 -8 0 -15 4 -15 9 0 4 4 8 9 8 6
0 12 -4 15 -8z m60 -11 c3 -4 -6 -6 -19 -3 -14 2 -25 6 -25 8 0 8 39 4 44 -5z
m105 -17 c39 -9 71 -20 71 -24 0 -4 -20 -2 -44 5 -24 8 -59 16 -76 19 -18 2
-34 7 -38 10 -9 9 11 7 87 -10z m-1219 -27 c-3 -2 -147 -7 -321 -11 -174 -3
-324 -9 -333 -12 -9 -3 -16 -2 -16 3 0 6 30 11 67 12 37 1 69 3 70 4 1 2 123
4 270 6 147 1 266 0 263 -2z m75 -7 c2 -3 -12 -5 -31 -6 -19 0 -34 3 -34 8 0
9 59 7 65 -2z m135 -8 c0 -4 -27 -5 -60 -4 -33 2 -60 7 -60 10 0 4 27 5 60 4
33 -2 60 -7 60 -10z m1201 -2 c45 -10 86 -17 91 -14 4 3 8 0 8 -6 0 -6 4 -9 9
-6 4 3 16 0 26 -8 15 -11 16 -13 1 -13 -9 0 -16 3 -16 7 0 3 -8 7 -17 8 -35 3
-218 50 -201 51 9 1 54 -8 99 -19z m-1092 -6 c10 -9 -65 -3 -78 5 -10 6 1 8
30 4 24 -3 46 -7 48 -9z m-1051 1 c-2 -3 -31 -7 -64 -9 -32 -3 -49 -2 -36 2
28 8 107 14 100 7z m1095 -2 c-7 -2 -19 -2 -25 0 -7 3 -2 5 12 5 14 0 19 -2
13 -5z m-1225 -8 c-3 -3 -25 -7 -49 -10 -29 -3 -36 -2 -19 3 30 10 75 14 68 7z
m1289 -1 c-3 -3 -12 -4 -19 -1 -8 3 -5 6 6 6 11 1 17 -2 13 -5z m109 -12 c-10
-2 -22 0 -28 6 -6 6 0 7 19 4 21 -5 23 -7 9 -10z m-1521 -1 c-3 -2 -16 -6 -28
-8 -15 -2 -18 0 -9 5 14 9 45 12 37 3z m1770 -29 c-3 -3 -11 0 -18 7 -9 10 -8
11 6 5 10 -3 15 -9 12 -12z m855 1 c8 -3 22 -7 30 -8 8 -2 26 -6 40 -10 14 -3
30 -7 35 -9 41 -9 132 -41 140 -48 13 -12 -8 -10 -42 4 -15 6 -32 12 -38 13
-5 2 -35 10 -65 20 -56 17 -69 20 -128 31 -18 4 -35 10 -38 16 -5 8 32 3 66
-9z m-810 -3 c0 -5 -5 -10 -11 -10 -5 0 -7 5 -4 10 3 6 8 10 11 10 2 0 4 -4 4
-10z m110 -16 c0 -8 -19 -13 -24 -6 -3 5 1 9 9 9 8 0 15 -2 15 -3z m147 -30
c-3 -3 -12 -4 -19 -1 -8 3 -5 6 6 6 11 1 17 -2 13 -5z m896 -53 c15 -6 27 -8
27 -5 0 4 6 2 13 -4 6 -5 27 -13 45 -17 17 -3 32 -10 32 -15 0 -9 -4 -8 -122
30 -43 14 -78 28 -78 32 0 7 34 -2 83 -21z m-656 3 c-3 -3 -12 -4 -19 -1 -8 3
-5 6 6 6 11 1 17 -2 13 -5z m953 -106 c74 -28 146 -55 159 -60 39 -14 16 -21
-26 -6 -21 7 -40 15 -43 18 -3 3 -23 11 -45 18 -39 13 -75 27 -105 41 -8 4
-36 14 -62 22 -27 7 -48 17 -48 22 0 5 8 6 18 2 9 -4 78 -29 152 -57z m-663
36 c-3 -3 -12 -4 -19 -1 -8 3 -5 6 6 6 11 1 17 -2 13 -5z m40 -10 c-3 -3 -12
-4 -19 -1 -8 3 -5 6 6 6 11 1 17 -2 13 -5z m249 -77 c4 -3 -4 -4 -16 -2 -30 6
-40 16 -12 12 12 -2 24 -6 28 -10z m54 -13 c0 -8 -19 -13 -24 -6 -3 5 1 9 9 9
8 0 15 -2 15 -3z m589 -44 c30 -11 74 -30 97 -41 24 -10 47 -19 51 -19 11 -1
60 -40 50 -40 -5 0 -21 7 -35 15 -15 8 -74 35 -132 60 -58 24 -107 50 -109 57
-3 10 -1 10 10 1 8 -6 38 -21 68 -33z m-4984 10 c-3 -5 -12 -10 -18 -10 -7 0
-6 4 3 10 19 12 23 12 15 0z m4575 -30 c8 -5 11 -10 5 -10 -5 0 -17 5 -25 10
-8 5 -10 10 -5 10 6 0 17 -5 25 -10z m45 -20 c3 -6 -1 -7 -9 -4 -18 7 -21 14
-7 14 6 0 13 -4 16 -10z m-4835 -24 c0 -2 -7 -7 -16 -10 -8 -3 -12 -2 -9 4 6
10 25 14 25 6z m4905 -6 c3 -6 -1 -7 -9 -4 -18 7 -21 14 -7 14 6 0 13 -4 16
-10z m-4985 -24 c0 -2 -7 -7 -16 -10 -8 -3 -12 -2 -9 4 6 10 25 14 25 6z
m5075 -14 c-3 -3 -11 0 -18 7 -9 10 -8 11 6 5 10 -3 15 -9 12 -12z m578 -60
c31 -15 57 -31 57 -35 0 -5 -3 -7 -7 -5 -73 32 -213 105 -213 110 0 4 24 -4
53 -18 28 -14 78 -37 110 -52z m-518 40 c-3 -3 -11 0 -18 7 -9 10 -8 11 6 5
10 -3 15 -9 12 -12z m-5210 -2 c-3 -5 -12 -10 -18 -10 -7 0 -6 4 3 10 19 12
23 12 15 0z m5250 -10 c3 -6 -1 -7 -9 -4 -18 7 -21 14 -7 14 6 0 13 -4 16 -10z
m-5385 -45 c0 -2 -10 -9 -22 -15 -22 -11 -22 -10 -4 4 21 17 26 19 26 11z
m5574 -41 c5 -14 4 -15 -9 -4 -17 14 -19 20 -6 20 5 0 12 -7 15 -16z m414 -6
c23 -13 42 -26 42 -30 0 -5 -82 35 -99 49 -15 12 21 -1 57 -19z m-6078 8 c0
-2 -7 -7 -16 -10 -8 -3 -12 -2 -9 4 6 10 25 14 25 6z m5700 -16 c0 -5 -2 -10
-4 -10 -3 0 -8 5 -11 10 -3 6 -1 10 4 10 6 0 11 -4 11 -10z m40 -20 c0 -5 -2
-10 -4 -10 -3 0 -8 5 -11 10 -3 6 -1 10 4 10 6 0 11 -4 11 -10z m-5840 -4 c0
-2 -8 -10 -17 -17 -16 -13 -17 -12 -4 4 13 16 21 21 21 13z m6380 -79 c30 -16
67 -38 82 -49 14 -10 31 -18 37 -18 6 0 11 -5 11 -11 0 -7 -11 -4 -27 7 -29
18 -190 109 -230 128 -13 6 -23 15 -23 19 0 5 21 -3 48 -18 26 -15 72 -41 102
-58z m-485 55 c-3 -3 -11 0 -18 7 -9 10 -8 11 6 5 10 -3 15 -9 12 -12z m-5955
-6 c0 -2 -8 -10 -17 -17 -16 -13 -17 -12 -4 4 13 16 21 21 21 13z m5995 -14
c-3 -3 -11 0 -18 7 -9 10 -8 11 6 5 10 -3 15 -9 12 -12z m-6035 -7 c0 -2 -10
-9 -22 -15 -22 -11 -22 -10 -4 4 21 17 26 19 26 11z m6075 -13 c-3 -3 -11 0
-18 7 -9 10 -8 11 6 5 10 -3 15 -9 12 -12z m40 -12 c3 -5 1 -10 -4 -10 -6 0
-11 5 -11 10 0 6 2 10 4 10 3 0 8 -4 11 -10z m65 -42 c0 -5 -11 -1 -25 8 -14
9 -25 18 -25 20 0 2 11 -2 25 -8 14 -6 25 -15 25 -20z m-6280 18 c0 -2 -8 -10
-17 -17 -16 -13 -17 -12 -4 4 13 16 21 21 21 13z m6321 -33 c13 -16 12 -17 -3
-4 -17 13 -22 21 -14 21 2 0 10 -8 17 -17z m-6401 -14 c-25 -17 -96 -52 -87
-43 12 12 81 52 92 53 6 0 3 -4 -5 -10z m3127 -5 c-3 -3 -12 -4 -19 -1 -8 3
-5 6 6 6 11 1 17 -2 13 -5z m3318 -4 c3 -6 -1 -7 -9 -4 -18 7 -21 14 -7 14 6
0 13 -4 16 -10z m-3578 -6 c-3 -3 -12 -4 -19 -1 -8 3 -5 6 6 6 11 1 17 -2 13
-5z m686 -1 c-7 -2 -19 -2 -25 0 -7 3 -2 5 12 5 14 0 19 -2 13 -5z m3392 -91
c-2 -2 -21 8 -44 22 -22 14 -45 26 -51 26 -5 0 -10 4 -10 9 0 5 -9 13 -20 16
-11 3 -20 10 -20 15 0 5 33 -12 74 -38 41 -25 73 -48 71 -50z m-454 71 c13
-17 13 -17 -6 -3 -11 8 -22 16 -24 17 -2 2 0 3 6 3 6 0 17 -8 24 -17z m-3864
1 c-3 -3 -12 -4 -19 -1 -8 3 -5 6 6 6 11 1 17 -2 13 -5z m40 0 c-3 -3 -12 -4
-19 -1 -8 3 -5 6 6 6 11 1 17 -2 13 -5z m1146 -1 c-7 -2 -21 -2 -30 0 -10 3
-4 5 12 5 17 0 24 -2 18 -5z m2718 -20 c13 -16 12 -17 -3 -4 -17 13 -22 21
-14 21 2 0 10 -8 17 -17z m-6632 4 c-2 -1 -13 -9 -24 -17 -19 -14 -19 -14 -6
3 7 9 18 17 24 17 6 0 8 -1 6 -3z m4078 -3 c-3 -3 -12 -4 -19 -1 -8 3 -5 6 6
6 11 1 17 -2 13 -5z m-1570 -10 c-3 -3 -12 -4 -19 -1 -8 3 -5 6 6 6 11 1 17
-2 13 -5z m4183 -32 c0 -1 -9 2 -20 8 -11 6 -20 15 -20 20 0 6 9 2 20 -7 11
-10 20 -19 20 -21z m-4336 20 c3 -5 -1 -9 -9 -9 -8 0 -12 4 -9 9 3 4 7 8 9 8
2 0 6 -4 9 -8z m1863 2 c-3 -3 -12 -4 -19 -1 -8 3 -5 6 6 6 11 1 17 -2 13 -5z
m-1903 -12 c3 -5 -1 -9 -9 -9 -8 0 -12 4 -9 9 3 4 7 8 9 8 2 0 6 -4 9 -8z
m-2404 -22 c-24 -15 -36 -11 -14 4 10 8 21 12 24 10 2 -3 -2 -9 -10 -14z
m4417 14 c-3 -3 -12 -4 -19 -1 -8 3 -5 6 6 6 11 1 17 -2 13 -5z m2394 -11 c13
-16 12 -17 -3 -4 -17 13 -22 21 -14 21 2 0 10 -8 17 -17z m-7151 -1 c0 -5 -16
-17 -35 -28 -19 -10 -35 -22 -35 -26 0 -5 -4 -8 -9 -8 -8 0 -98 -56 -126 -78
-5 -4 -55 -39 -110 -77 -55 -38 -140 -100 -188 -138 -49 -38 -91 -67 -93 -64
-2 2 8 13 22 23 15 10 35 27 46 37 10 9 22 17 27 17 5 0 11 4 13 9 2 4 44 37
93 71 50 35 92 68 93 72 2 4 10 8 18 8 8 0 14 3 14 8 0 4 23 21 51 37 28 17
57 36 64 43 8 6 18 12 23 12 6 0 12 4 14 9 2 7 105 78 116 80 1 1 2 -3 2 -7z
m2677 2 c-3 -3 -12 -4 -19 -1 -8 3 -5 6 6 6 11 1 17 -2 13 -5z m-87 -8 c0 -3
-4 -8 -10 -11 -5 -3 -10 -1 -10 4 0 6 5 11 10 11 6 0 10 -2 10 -4z m5008 -66
c23 -13 42 -27 42 -32 0 -4 -21 6 -47 23 -27 17 -60 39 -75 48 -16 9 -28 20
-28 25 0 4 15 -3 33 -16 17 -14 51 -35 75 -48z m-2644 51 c4 -5 -3 -7 -14 -4
-23 6 -26 13 -6 13 8 0 17 -4 20 -9z m2256 -12 c17 -13 18 -17 5 -10 -33 17
-51 31 -40 31 6 0 21 -10 35 -21z m-4707 4 c-7 -2 -19 -2 -25 0 -7 3 -2 5 12
5 14 0 19 -2 13 -5z m2501 -2 c4 -5 -3 -7 -14 -4 -23 6 -26 13 -6 13 8 0 17
-4 20 -9z m-4769 -31 c-27 -16 -62 -36 -77 -45 -42 -24 -34 -10 10 16 64 41
97 58 107 58 6 0 -12 -13 -40 -29z m4920 0 c13 -5 14 -9 5 -9 -8 0 -24 4 -35
9 -13 5 -14 9 -5 9 8 0 24 -4 35 -9z m2150 -26 c30 -20 55 -39 55 -42 0 -2
-12 4 -27 13 -68 44 -97 65 -90 65 4 0 32 -16 62 -36z m-4968 20 c-3 -3 -12
-4 -19 -1 -8 3 -5 6 6 6 11 1 17 -2 13 -5z m1253 1 c0 -7 -30 -13 -34 -7 -3 4
4 9 15 9 10 1 19 0 19 -2z m157 -1 c-3 -3 -12 -4 -19 -1 -8 3 -5 6 6 6 11 1
17 -2 13 -5z m46 -1 c-7 -2 -19 -2 -25 0 -7 3 -2 5 12 5 14 0 19 -2 13 -5z
m157 -3 c8 -5 11 -10 5 -10 -5 0 -17 5 -25 10 -8 5 -10 10 -5 10 6 0 17 -5 25
-10z m-1670 -10 c-8 -5 -24 -9 -35 -9 -16 1 -16 2 5 9 35 11 48 11 30 0z
m1197 4 c-3 -3 -12 -4 -19 -1 -8 3 -5 6 6 6 11 1 17 -2 13 -5z m566 -1 c-7 -2
-21 -2 -30 0 -10 3 -4 5 12 5 17 0 24 -2 18 -5z m215 -10 c26 -3 49 -7 52 -10
3 -3 -20 -2 -50 1 -30 3 -68 6 -85 7 -29 1 -29 1 -5 8 14 5 29 6 33 3 5 -2 30
-6 55 -9z m992 3 c25 -8 36 -15 25 -15 -21 1 -98 27 -80 28 6 0 30 -6 55 -13z
m-1943 -2 c-3 -3 -12 -4 -19 -1 -8 3 -5 6 6 6 11 1 17 -2 13 -5z m-197 -14 c0
-5 -10 -10 -22 -9 -22 0 -22 1 -3 9 11 5 21 9 23 9 1 1 2 -3 2 -9z m113 3 c-7
-2 -19 -2 -25 0 -7 3 -2 5 12 5 14 0 19 -2 13 -5z m1127 -3 c0 -5 -4 -10 -10
-10 -5 0 -10 5 -10 10 0 6 5 10 10 10 6 0 10 -4 10 -10z m139 -16 c10 -10 -8
-9 -64 3 l-60 12 60 -5 c33 -3 62 -8 64 -10z m3216 -28 c20 -18 20 -18 0 -7
-30 16 -55 37 -55 46 0 8 20 -6 55 -39z m-3130 20 c14 -2 28 -6 32 -9 3 -4
-10 -4 -28 -1 -19 3 -42 5 -51 5 -10 0 -20 4 -23 8 -2 5 7 7 20 5 14 -2 36 -6
50 -8z m795 4 c0 -5 -2 -10 -4 -10 -3 0 -8 5 -11 10 -3 6 -1 10 4 10 6 0 11
-4 11 -10z m-5253 -6 c-3 -4 -64 -44 -134 -90 -70 -46 -137 -90 -148 -98 -115
-85 -145 -105 -145 -98 0 4 23 23 51 42 27 19 62 44 77 55 36 27 295 195 301
195 2 0 2 -3 -2 -6z m1928 -13 c-6 -5 -21 -12 -35 -15 l-25 -7 25 15 c28 17
50 21 35 7z m832 3 c-3 -3 -12 -4 -19 -1 -8 3 -5 6 6 6 11 1 17 -2 13 -5z
m1848 -10 c22 -4 46 -7 53 -7 6 0 12 -4 12 -9 0 -5 -8 -7 -17 -4 -20 6 -72 15
-117 21 -15 2 -31 6 -34 10 -6 5 30 2 103 -11z m725 4 c0 -10 -9 -9 -35 2 -17
8 -16 8 8 7 15 -1 27 -5 27 -9z m1960 -9 c17 -13 18 -17 5 -10 -33 17 -51 31
-40 31 6 0 21 -10 35 -21z m-4715 -9 c-3 -5 -12 -10 -18 -10 -7 0 -6 4 3 10
19 12 23 12 15 0z m2820 0 c3 -6 -1 -7 -9 -4 -18 7 -21 14 -7 14 6 0 13 -4 16
-10z m-2858 -6 c-3 -3 -12 -4 -19 -1 -8 3 -5 6 6 6 11 1 17 -2 13 -5z m2199
-7 c3 -2 -7 -4 -21 -4 -14 0 -27 3 -30 7 -5 8 43 5 51 -3z m2949 -38 c22 -16
58 -41 80 -56 48 -31 190 -139 225 -170 14 -13 28 -23 31 -23 3 0 17 -9 30
-21 66 -56 146 -128 183 -162 34 -33 31 -31 -19 8 -33 26 -81 66 -106 89 -70
62 -88 76 -99 76 -5 0 -13 6 -17 13 -4 7 -26 26 -48 43 -22 16 -49 37 -60 48
-11 10 -54 41 -95 69 -41 28 -77 53 -80 56 -3 3 -24 19 -48 35 -24 16 -45 34
-49 39 -7 11 20 -5 72 -44z m-5190 31 c-3 -5 -11 -10 -16 -10 -6 0 -7 5 -4 10
3 6 11 10 16 10 6 0 7 -4 4 -10z m2965 0 c8 -5 11 -10 5 -10 -5 0 -17 5 -25
10 -8 5 -10 10 -5 10 6 0 17 -5 25 -10z m1941 -47 c7 -8 -8 -1 -34 17 -26 17
-47 33 -47 35 0 8 68 -36 81 -52z m-2591 37 c0 -5 -2 -10 -4 -10 -3 0 -8 5
-11 10 -3 6 -1 10 4 10 6 0 11 -4 11 -10z m-2393 -6 c-3 -3 -12 -4 -19 -1 -8
3 -5 6 6 6 11 1 17 -2 13 -5z m2486 -14 c4 -3 -6 -5 -23 -2 -17 2 -33 8 -36
14 -6 10 46 0 59 -12z m612 10 c3 -6 -1 -7 -9 -4 -18 7 -21 14 -7 14 6 0 13
-4 16 -10z m-3795 -4 c0 -2 -7 -6 -15 -10 -8 -3 -15 -1 -15 4 0 6 7 10 15 10
8 0 15 -2 15 -4z m647 -2 c-3 -3 -12 -4 -19 -1 -8 3 -5 6 6 6 11 1 17 -2 13
-5z m3250 -30 c-5 -5 -69 16 -82 27 -5 5 12 2 38 -7 27 -9 46 -18 44 -20z
m-3942 16 c-3 -5 -14 -10 -23 -9 -14 0 -13 2 3 9 27 11 27 11 20 0z m654 6
c-2 -2 -17 -6 -34 -10 -22 -5 -26 -4 -15 4 14 9 59 15 49 6z m2651 -11 c19 -7
28 -13 20 -13 -8 0 -31 6 -50 13 -19 7 -28 13 -20 13 8 0 31 -6 50 -13z
m-2770 -15 c0 -5 -5 -10 -11 -10 -5 0 -7 5 -4 10 3 6 8 10 11 10 2 0 4 -4 4
-10z m2835 -8 c-3 -3 -11 0 -18 7 -9 10 -8 11 6 5 10 -3 15 -9 12 -12z m600 8
c3 -5 1 -10 -4 -10 -6 0 -11 5 -11 10 0 6 2 10 4 10 3 0 8 -4 11 -10z m1945
-117 c0 -2 -29 16 -65 41 -36 25 -69 46 -73 46 -4 0 -13 9 -19 19 -7 11 26 -8
72 -41 47 -33 85 -62 85 -65z m-6000 105 c0 -4 -4 -8 -9 -8 -6 0 -12 4 -15 8
-3 5 1 9 9 9 8 0 15 -4 15 -9z m575 2 c3 -5 1 -10 -4 -10 -6 0 -11 5 -11 10 0
6 2 10 4 10 3 0 8 -4 11 -10z m-30 -10 c-3 -5 -12 -10 -18 -10 -7 0 -6 4 3 10
19 12 23 12 15 0z m2991 -3 c4 -4 0 -7 -9 -7 -9 0 -18 4 -21 9 -7 10 20 9 30
-2z m579 -5 c-3 -3 -11 0 -18 7 -9 10 -8 11 6 5 10 -3 15 -9 12 -12z m-3609
-4 c4 -6 3 -8 -4 -4 -6 3 -13 2 -17 -4 -3 -5 -11 -10 -18 -10 -6 0 -2 7 9 15
23 18 21 17 30 3z m3094 -10 c0 -4 -4 -8 -9 -8 -6 0 -12 4 -15 8 -3 5 1 9 9 9
8 0 15 -4 15 -9z m-3715 -8 c-3 -5 -12 -10 -18 -10 -7 0 -6 4 3 10 19 12 23
12 15 0z m4317 -4 c15 -8 40 -17 57 -21 17 -4 33 -10 36 -15 3 -4 -12 -3 -32
3 -44 13 -113 46 -98 47 6 0 22 -6 37 -14z m-3797 -6 c-11 -5 -27 -9 -35 -9
-9 0 -8 4 5 9 11 5 27 9 35 9 9 0 8 -4 -5 -9z m3260 0 c3 -6 -1 -7 -9 -4 -18
7 -21 14 -7 14 6 0 13 -4 16 -10z m-3825 -10 c-8 -5 -19 -10 -25 -10 -5 0 -3
5 5 10 8 5 20 10 25 10 6 0 3 -5 -5 -10z m495 -10 c-3 -5 -14 -10 -23 -10 -15
0 -15 2 -2 10 20 13 33 13 25 0z m-550 -10 c-3 -5 -12 -10 -18 -10 -7 0 -6 4
3 10 19 12 23 12 15 0z m491 -5 c-11 -8 -25 -15 -30 -15 -6 1 0 7 14 15 32 19
40 18 16 0z m3564 -17 c10 -6 7 -7 -10 -2 -14 3 -32 11 -40 16 -10 6 -7 7 10
2 14 -3 32 -11 40 -16z m-3611 -2 c-2 -1 -19 -8 -36 -14 -37 -12 -45 -6 -10 8
22 9 54 13 46 6z m4176 -26 c3 -5 -4 -6 -15 -3 -11 3 -22 9 -25 13 -3 5 4 6
15 3 11 -3 22 -9 25 -13z m1670 -23 c56 -42 61 -47 50 -47 -6 0 -23 12 -40 26
-16 14 -41 35 -55 46 -38 30 -1 9 45 -25z m-5925 28 c0 -2 -10 -9 -22 -15 -22
-11 -22 -10 -4 4 21 17 26 19 26 11z m3780 -5 c18 -12 2 -12 -25 0 -13 6 -15
9 -5 9 8 0 22 -4 30 -9z m-4280 -4 c0 -2 -7 -7 -16 -10 -8 -3 -12 -2 -9 4 6
10 25 14 25 6z m430 -21 c-30 -17 -40 -18 -40 -4 0 5 4 8 8 5 4 -2 14 -1 22 5
8 5 20 9 25 8 6 0 -1 -6 -15 -14z m4374 6 c4 -5 -3 -7 -14 -4 -23 6 -26 13 -6
13 8 0 17 -4 20 -9z m-4854 -8 c-8 -3 -22 -11 -30 -17 -13 -10 -13 -9 -1 7 7
9 21 17 30 16 13 0 14 -1 1 -6z m4445 -13 c3 -6 -1 -7 -9 -4 -18 7 -21 14 -7
14 6 0 13 -4 16 -10z m460 0 c3 -5 2 -10 -4 -10 -5 0 -13 5 -16 10 -3 6 -2 10
4 10 5 0 13 -4 16 -10z m-6831 -18 c-35 -23 -264 -217 -264 -224 0 -4 -6 -8
-12 -8 -17 0 62 74 172 160 24 19 58 47 74 62 16 15 32 25 35 22 3 -3 1 -8 -5
-12z m224 -41 c-40 -32 -75 -57 -77 -55 -5 4 21 27 65 59 15 11 37 28 48 37
12 10 25 17 29 18 5 0 -25 -26 -65 -59z m2112 55 c0 -2 -7 -6 -15 -10 -8 -3
-15 -1 -15 4 0 6 7 10 15 10 8 0 15 -2 15 -4z m4544 -25 c-2 -3 -12 3 -22 13
-16 17 -16 18 5 5 12 -7 20 -15 17 -18z m-5064 -6 c-7 -8 -17 -15 -23 -15 -6
0 -2 7 9 15 25 19 30 19 14 0z m5111 -12 c13 -17 13 -17 -6 -3 -11 8 -22 16
-24 17 -2 2 0 3 6 3 6 0 17 -8 24 -17z m1655 -81 c-3 -2 -17 8 -33 22 -15 14
-31 26 -34 26 -8 0 -49 36 -49 44 0 3 27 -15 60 -41 33 -25 58 -48 56 -51z
m-6395 63 c-18 -8 -38 -15 -45 -15 -15 1 46 28 64 29 8 0 0 -6 -19 -14z m4344
5 c3 -6 -1 -7 -9 -4 -18 7 -21 14 -7 14 6 0 13 -4 16 -10z m-4815 -25 c-7 -8
-17 -15 -23 -15 -6 0 -2 7 9 15 25 19 30 19 14 0z m5285 -3 c-3 -3 -11 0 -18
7 -9 10 -8 11 6 5 10 -3 15 -9 12 -12z m-4880 -2 c-3 -5 -12 -10 -18 -10 -7 0
-6 4 3 10 19 12 23 12 15 0z m-45 -15 c0 -2 -13 -11 -30 -20 -38 -19 -40 -11
-2 9 31 17 32 18 32 11z m-1957 -35 c-10 -11 -19 -20 -21 -20 -1 0 2 9 8 20 6
11 15 20 20 20 6 0 2 -9 -7 -20z m6602 0 c3 -5 1 -10 -4 -10 -6 0 -11 5 -11
10 0 6 2 10 4 10 3 0 8 -4 11 -10z m1926 -30 c4 0 9 -7 13 -15 3 -8 4 -15 2
-15 -6 0 -66 57 -66 64 0 4 10 -2 22 -14 12 -11 25 -20 29 -20z m-7056 20 c-3
-5 -12 -10 -18 -10 -7 0 -6 4 3 10 19 12 23 12 15 0z m395 4 c0 -8 -19 -13
-24 -6 -3 5 1 9 9 9 8 0 15 -2 15 -3z m-1900 -12 c0 -5 -36 -37 -81 -73 -44
-35 -93 -74 -107 -87 -15 -13 -50 -43 -78 -68 -28 -24 -54 -44 -58 -44 -4 0
26 28 65 63 67 58 104 88 188 155 18 15 41 35 50 45 17 19 21 21 21 9z m7081
-10 c-7 -2 -18 1 -23 6 -8 8 -4 9 13 5 13 -4 18 -8 10 -11z m-5217 -1 c-8 -8
-43 -8 -38 0 2 4 13 7 24 6 10 -1 17 -3 14 -6z m-64 -21 c-8 -5 -19 -10 -25
-10 -5 0 -3 5 5 10 8 5 20 10 25 10 6 0 3 -5 -5 -10z m6822 -33 c13 -13 31
-28 39 -33 21 -12 112 -90 154 -131 18 -18 52 -49 76 -69 55 -46 292 -274 284
-274 -8 0 -66 53 -163 150 -47 47 -98 94 -113 106 -15 11 -56 47 -91 80 -35
32 -83 75 -107 94 -71 58 -116 99 -109 100 4 0 18 -10 30 -23z m-6893 -1 c-15
-13 -49 -25 -49 -17 0 5 8 12 18 14 24 6 36 8 31 3z m5125 -15 c4 -5 -3 -7
-14 -4 -23 6 -26 13 -6 13 8 0 17 -4 20 -9z m371 -1 c3 -6 -1 -7 -9 -4 -18 7
-21 14 -7 14 6 0 13 -4 16 -10z m-7650 -62 c-92 -83 -111 -101 -235 -222 -121
-119 -287 -294 -346 -366 -16 -19 -38 -44 -49 -56 -11 -12 -38 -43 -60 -69
-22 -26 -48 -56 -57 -66 -10 -11 -18 -23 -18 -28 0 -5 -4 -11 -8 -13 -4 -1
-28 -29 -52 -60 -25 -32 -49 -58 -54 -58 -4 0 -4 6 1 13 26 33 201 246 223
271 14 15 34 38 45 51 109 123 172 191 305 324 175 175 343 332 348 326 3 -2
-17 -23 -43 -47z m2094 48 c-2 -2 -15 -9 -29 -15 -24 -11 -24 -11 -6 3 16 13
49 24 35 12z m5232 -13 c13 -16 12 -17 -3 -4 -10 7 -18 15 -18 17 0 8 8 3 21
-13z m39 -13 c0 -5 -2 -10 -4 -10 -3 0 -8 5 -11 10 -3 6 -1 10 4 10 6 0 11 -4
11 -10z m374 -19 c-2 -3 -12 3 -22 13 -16 17 -16 18 5 5 12 -7 20 -15 17 -18z
m1641 11 c-3 -3 -11 0 -18 7 -9 10 -8 11 6 5 10 -3 15 -9 12 -12z m-7346 4
c-2 -2 -15 -9 -29 -15 -24 -11 -24 -11 -6 3 16 13 49 24 35 12z m5372 -23 c13
-16 12 -17 -3 -4 -17 13 -22 21 -14 21 2 0 10 -8 17 -17z m-5801 -17 c0 -2 -7
-7 -16 -10 -8 -3 -12 -2 -9 4 6 10 25 14 25 6z m349 0 c-2 -2 -15 -9 -29 -15
-24 -11 -24 -11 -6 3 16 13 49 24 35 12z m-60 -30 c-3 -3 -52 -31 -109 -64
-58 -32 -131 -75 -162 -96 -32 -20 -58 -33 -58 -29 0 4 22 20 48 36 26 15 97
56 157 91 95 55 140 78 124 62z m5616 -6 c3 -6 -1 -7 -9 -4 -18 7 -21 14 -7
14 6 0 13 -4 16 -10z m40 -20 c3 -6 -1 -7 -9 -4 -18 7 -21 14 -7 14 6 0 13 -4
16 -10z m405 -46 c0 -2 -9 0 -20 6 -11 6 -20 13 -20 16 0 2 9 0 20 -6 11 -6
20 -13 20 -16z m-296 -23 c-2 -3 -12 3 -22 13 -16 17 -16 18 5 5 12 -7 20 -15
17 -18z m-2374 9 c0 -5 -2 -10 -4 -10 -3 0 -8 5 -11 10 -3 6 -1 10 4 10 6 0
11 -4 11 -10z m-5234 -45 c-27 -25 -51 -43 -53 -41 -4 4 86 86 95 86 4 0 -15
-20 -42 -45z m1329 25 c-3 -5 -16 -15 -28 -21 -19 -9 -19 -8 3 10 28 23 34 26
25 11z m6345 -20 c8 -5 11 -10 5 -10 -5 0 -21 10 -35 21 -24 20 -5 13 30 -11z
m-2225 10 c3 -6 -1 -7 -9 -4 -18 7 -21 14 -7 14 6 0 13 -4 16 -10z m42 -6 c-3
-3 -12 -4 -19 -1 -8 3 -5 6 6 6 11 1 17 -2 13 -5z m-1742 -14 c-3 -5 -16 -10
-28 -9 -20 1 -20 2 3 9 14 4 26 8 28 9 2 1 0 -3 -3 -9z m-2480 -10 c-3 -5 -16
-15 -28 -21 -19 -9 -19 -8 3 10 28 23 34 26 25 11z m4312 4 c-3 -3 -12 -4 -19
-1 -8 3 -5 6 6 6 11 1 17 -2 13 -5z m2192 -46 c13 -10 19 -18 14 -18 -6 0 -16
6 -22 14 -6 8 -25 19 -41 26 -17 7 -30 16 -30 21 0 9 34 -9 79 -43z m-2132 36
c-3 -3 -12 -4 -19 -1 -8 3 -5 6 6 6 11 1 17 -2 13 -5z m40 -10 c-3 -3 -12 -4
-19 -1 -8 3 -5 6 6 6 11 1 17 -2 13 -5z m28 -4 c3 -5 1 -10 -4 -10 -6 0 -11 5
-11 10 0 6 2 10 4 10 3 0 8 -4 11 -10z m56 -18 c-7 -2 -18 1 -23 6 -8 8 -4 9
13 5 13 -4 18 -8 10 -11z m-5841 -12 c-6 -11 -13 -20 -16 -20 -2 0 0 9 6 20 6
11 13 20 16 20 2 0 0 -9 -6 -20z m8161 3 c13 -17 13 -17 -6 -3 -11 8 -22 16
-24 17 -2 2 0 3 6 3 6 0 17 -8 24 -17z m-4631 -3 c0 -5 -5 -10 -11 -10 -5 0
-7 5 -4 10 3 6 8 10 11 10 2 0 4 -4 4 -10z m2367 4 c-3 -3 -12 -4 -19 -1 -8 3
-5 6 6 6 11 1 17 -2 13 -5z m53 -14 c0 -5 -2 -10 -4 -10 -3 0 -8 5 -11 10 -3
6 -1 10 4 10 6 0 11 -4 11 -10z m35 -8 c-3 -3 -11 0 -18 7 -9 10 -8 11 6 5 10
-3 15 -9 12 -12z m-4436 -5 c-2 -2 -38 -25 -79 -52 -110 -71 -390 -275 -420
-305 -3 -3 -36 -30 -75 -61 -38 -31 -83 -68 -98 -83 -15 -14 -30 -26 -33 -26
-3 0 -15 -10 -25 -22 -19 -22 -20 -22 -10 -2 6 12 20 28 33 36 13 9 34 26 48
38 14 12 68 57 120 99 52 42 104 84 114 93 11 10 38 30 60 45 23 15 75 53 116
83 41 31 93 67 115 80 22 14 60 39 84 58 24 18 46 30 49 27 3 -3 3 -6 1 -8z
m6365 -16 c-2 -3 -12 3 -22 13 -16 17 -16 18 5 5 12 -7 20 -15 17 -18z m-7970
-21 c-16 -16 -32 -30 -37 -30 -4 0 7 15 25 34 18 19 35 33 37 30 2 -2 -9 -17
-25 -34z m4826 31 c0 -4 -48 -8 -107 -8 -60 0 -156 -3 -215 -7 -63 -4 -108 -3
-108 2 0 5 10 8 23 7 12 -2 40 0 61 4 59 9 346 11 346 2z m100 -1 c0 -3 -20
-6 -45 -6 -25 0 -45 3 -45 7 0 4 20 7 45 6 25 0 45 -3 45 -7z m45 1 c3 -6 -4
-9 -15 -8 -11 1 -20 5 -20 9 0 11 28 10 35 -1z m118 0 c20 -1 37 -6 37 -12 0
-5 -4 -8 -9 -4 -5 3 -37 6 -70 7 -34 1 -61 5 -61 8 0 4 15 5 33 4 17 -1 49 -3
70 -3z m-1643 -7 c0 -8 -19 -13 -24 -6 -3 5 1 9 9 9 8 0 15 -2 15 -3z m939 -8
c-2 -2 -30 -6 -62 -9 -71 -6 -66 5 6 13 50 6 65 4 56 -4z m-979 0 c0 -2 -7 -7
-16 -10 -8 -3 -12 -2 -9 4 6 10 25 14 25 6z m1820 -8 c0 -11 -12 -10 -30 2
-12 7 -10 9 8 7 12 0 22 -5 22 -9z m90 -4 c0 -2 -11 -3 -24 -2 -14 1 -23 5
-20 9 4 7 44 0 44 -7z m866 0 c19 -15 19 -15 -1 -6 -11 5 -27 12 -35 15 -13 5
-13 6 1 6 8 1 24 -6 35 -15z m1939 -82 c-5 -5 -135 82 -135 90 0 4 31 -14 70
-39 38 -26 67 -49 65 -51z m-6880 78 c-3 -5 -20 -19 -38 -30 -32 -22 -32 -22
3 9 37 32 45 37 35 21z m2120 0 c-3 -5 -12 -10 -18 -10 -7 0 -6 4 3 10 19 12
23 12 15 0z m872 4 c-3 -3 -12 -4 -19 -1 -8 3 -5 6 6 6 11 1 17 -2 13 -5z
m1118 -4 c3 -6 -1 -7 -9 -4 -18 7 -21 14 -7 14 6 0 13 -4 16 -10z m-2025 -5
c0 -2 -9 -9 -20 -15 -12 -6 -20 -7 -20 -1 0 5 8 12 18 14 9 3 18 5 20 6 1 0 2
-1 2 -4z m823 -2 c-7 -2 -19 -2 -25 0 -7 3 -2 5 12 5 14 0 19 -2 13 -5z m1277
3 c0 -11 -19 -15 -25 -6 -3 5 1 10 9 10 9 0 16 -2 16 -4z m-1375 -16 c-3 -5
-12 -10 -18 -10 -7 0 -6 4 3 10 19 12 23 12 15 0z m1428 3 c-7 -2 -19 -2 -25
0 -7 3 -2 5 12 5 14 0 19 -2 13 -5z m42 -3 c3 -5 1 -10 -4 -10 -6 0 -11 5 -11
10 0 6 2 10 4 10 3 0 8 -4 11 -10z m742 4 c-3 -3 -12 -4 -19 -1 -8 3 -5 6 6 6
11 1 17 -2 13 -5z m-3011 -13 c-8 -12 -66 -32 -66 -23 0 5 15 13 33 19 17 5
33 11 35 12 2 0 1 -3 -2 -8z m2335 -9 c-7 -2 -18 1 -23 6 -8 8 -4 9 13 5 13
-4 18 -8 10 -11z m724 8 c13 -6 15 -9 5 -9 -8 0 -22 4 -30 9 -18 12 -2 12 25
0z m-2358 -6 c-3 -3 -12 -4 -19 -1 -8 3 -5 6 6 6 11 1 17 -2 13 -5z m-4012
-24 c-10 -11 -20 -18 -23 -16 -5 6 21 35 32 36 5 0 1 -9 -9 -20z m5722 14 c-3
-3 -12 -4 -19 -1 -8 3 -5 6 6 6 11 1 17 -2 13 -5z m43 -10 c0 -2 -7 -4 -15 -4
-8 0 -15 4 -15 10 0 5 7 7 15 4 8 -4 15 -8 15 -10z m-1900 -4 c0 -5 -5 -10
-11 -10 -5 0 -7 5 -4 10 3 6 8 10 11 10 2 0 4 -4 4 -10z m2595 -8 c-3 -3 -11
0 -18 7 -9 10 -8 11 6 5 10 -3 15 -9 12 -12z m-3265 -1 c-8 -5 -26 -11 -40
-15 -21 -5 -20 -3 5 9 32 15 60 20 35 6z m635 -1 c-3 -5 -12 -10 -18 -10 -7 0
-6 4 3 10 19 12 23 12 15 0z m2000 0 c3 -6 -1 -7 -9 -4 -18 7 -21 14 -7 14 6
0 13 -4 16 -10z m55 -5 c0 -2 -9 -3 -19 -2 -11 0 -18 5 -15 9 4 6 34 0 34 -7z
m-5927 -20 c-3 -9 -8 -14 -10 -11 -3 3 -2 9 2 15 9 16 15 13 8 -4z m3804 9
c-3 -3 -11 -6 -19 -8 -7 -1 -20 -6 -28 -11 -12 -7 -13 -6 -3 6 6 8 22 15 34
16 11 1 19 0 16 -3z m2160 0 c-3 -3 -12 -4 -19 -1 -8 3 -5 6 6 6 11 1 17 -2
13 -5z m2288 -4 c3 -5 1 -10 -4 -10 -6 0 -11 5 -11 10 0 6 2 10 4 10 3 0 8 -4
11 -10z m-5085 -6 c0 -8 -19 -13 -24 -6 -3 5 1 9 9 9 8 0 15 -2 15 -3z m565
-4 c-3 -5 -12 -10 -18 -10 -7 0 -6 4 3 10 19 12 23 12 15 0z m-615 -15 c-7 -8
-16 -13 -20 -10 -4 3 -28 -4 -51 -15 -24 -11 -51 -20 -59 -20 -8 0 12 11 44
25 33 13 63 22 67 19 4 -2 10 0 14 6 3 5 9 10 12 10 3 0 0 -7 -7 -15z m580 5
c0 -5 -5 -10 -11 -10 -5 0 -7 5 -4 10 3 6 8 10 11 10 2 0 4 -4 4 -10z m2396
-8 c-10 -2 -22 0 -28 6 -6 6 0 7 19 4 21 -5 23 -7 9 -10z m565 1 c13 -17 13
-17 -6 -3 -11 8 -22 16 -24 17 -2 2 0 3 6 3 6 0 17 -8 24 -17z m1727 -75 c2
-4 8 -8 13 -8 5 0 17 -7 27 -15 9 -9 44 -37 77 -63 91 -71 97 -76 117 -94 10
-10 18 -16 18 -13 0 5 25 -16 95 -80 18 -16 65 -59 105 -95 171 -152 459 -451
560 -581 14 -17 35 -41 48 -52 12 -11 22 -27 22 -35 0 -7 -21 12 -47 45 -26
32 -52 63 -58 69 -5 6 -30 35 -55 64 -124 144 -418 436 -529 527 -19 15 -46
40 -60 54 -14 15 -61 54 -104 88 -86 69 -114 91 -131 106 -6 6 -31 25 -56 42
-25 17 -54 39 -65 50 -11 10 -37 29 -57 43 -21 14 -38 29 -38 33 0 9 113 -72
118 -85z m-8425 58 c-10 -13 -20 -22 -22 -20 -4 4 29 44 36 44 2 0 -4 -11 -14
-24z m3687 15 c0 -5 -10 -11 -22 -14 -22 -6 -22 -6 -4 8 23 17 26 18 26 6z
m2500 -11 c8 -5 11 -10 5 -10 -5 0 -17 5 -25 10 -8 5 -10 10 -5 10 6 0 17 -5
25 -10z m-4990 -4 c0 -2 -8 -10 -17 -17 -16 -13 -17 -12 -4 4 13 16 21 21 21
13z m5108 -32 c4 -4 -2 -4 -13 0 -11 4 -32 10 -48 13 -15 3 -30 9 -33 14 -6
10 85 -16 94 -27z m3567 -6 c24 -24 30 -33 14 -23 -23 17 -65 65 -56 65 1 0
21 -19 42 -42z m-6280 22 c-27 -12 -43 -12 -25 0 8 5 22 9 30 9 10 0 8 -3 -5
-9z m3206 -8 c-7 -2 -18 1 -23 6 -8 8 -4 9 13 5 13 -4 18 -8 10 -11z m-6838
-17 c-3 -9 -8 -14 -10 -11 -3 3 -2 9 2 15 9 16 15 13 8 -4z m3042 6 c-13 -12
-85 -42 -85 -35 0 4 77 41 90 43 2 1 0 -3 -5 -8z m544 5 c-2 -2 -17 -6 -34
-10 -22 -5 -26 -4 -15 4 14 9 59 15 49 6z m2798 -12 c-3 -3 -12 -4 -19 -1 -8
3 -5 6 6 6 11 1 17 -2 13 -5z m77 -20 c26 -9 45 -18 43 -20 -2 -2 -28 5 -58
15 -30 11 -49 20 -43 20 6 1 32 -6 58 -15z m-6503 -27 c-13 -12 -20 -15 -15
-7 12 22 28 39 33 34 3 -3 -6 -15 -18 -27z m1209 30 c0 -2 -10 -12 -22 -23
l-23 -19 19 23 c18 21 26 27 26 19z m2295 -7 c-3 -5 -12 -10 -18 -10 -7 0 -6
4 3 10 19 12 23 12 15 0z m-520 -10 c-3 -5 -13 -10 -21 -10 -8 0 -14 -5 -14
-12 0 -6 -3 -8 -6 -5 -4 3 -15 2 -25 -4 -11 -5 -19 -7 -19 -4 0 5 77 44 88 45
2 0 0 -4 -3 -10z m480 0 c-3 -5 -12 -10 -18 -10 -7 0 -6 4 3 10 19 12 23 12
15 0z m3145 -23 c13 -5 13 -6 -1 -6 -8 -1 -24 6 -35 15 -19 15 -19 15 1 6 11
-5 27 -12 35 -15z m-3200 3 c0 -5 -4 -10 -10 -10 -5 0 -10 5 -10 10 0 6 5 10
10 10 6 0 10 -4 10 -10z m3645 0 c3 -6 -1 -7 -9 -4 -18 7 -21 14 -7 14 6 0 13
-4 16 -10z m2975 -15 c13 -14 21 -25 17 -25 -3 0 -17 11 -31 25 -14 14 -22 25
-17 25 4 0 18 -11 31 -25z m-3365 -5 c3 -5 1 -10 -4 -10 -6 0 -11 5 -11 10 0
6 2 10 4 10 3 0 8 -4 11 -10z m-3780 -10 c-3 -5 -14 -10 -23 -10 -15 0 -15 2
-2 10 20 13 33 13 25 0z m3825 -12 c0 -5 5 -6 10 -3 6 3 10 4 10 1 0 -15 -20
-13 -36 5 -16 18 -16 19 -1 13 9 -3 17 -10 17 -16z m-5600 -2 c0 -2 -8 -10
-17 -17 -16 -13 -17 -12 -4 4 13 16 21 21 21 13z m1730 0 c0 -2 -7 -7 -16 -10
-8 -3 -12 -2 -9 4 6 10 25 14 25 6z m3930 -16 c8 -5 11 -10 5 -10 -5 0 -17 5
-25 10 -8 5 -10 10 -5 10 6 0 17 -5 25 -10z m2161 -17 l24 -28 -30 25 c-16 14
-32 26 -34 28 -2 1 0 2 6 2 5 0 20 -12 34 -27z m1158 -4 c32 -42 22 -43 -12
-2 -16 18 -25 33 -20 32 4 0 19 -14 32 -30z m-3222 -15 c38 -15 73 -31 78 -36
10 -9 -52 13 -125 45 -58 26 -25 19 47 -9z m384 9 c13 -16 12 -17 -3 -4 -17
13 -22 21 -14 21 2 0 10 -8 17 -17z m3069 2 c7 -9 8 -15 2 -15 -5 0 -12 7 -16
15 -3 8 -4 15 -2 15 2 0 9 -7 16 -15z m-7570 -2 c0 -9 -48 -33 -64 -33 -6 0 5
9 24 19 41 23 40 23 40 14z m-1700 -6 c0 -2 -10 -12 -22 -23 l-23 -19 19 23
c18 21 26 27 26 19z m-1160 -22 c-7 -9 -15 -13 -19 -10 -3 3 1 10 9 15 21 14
24 12 10 -5z m3240 11 c0 -2 -9 -6 -20 -9 -11 -3 -18 -1 -14 4 5 9 34 13 34 5z
m4195 -24 c-3 -3 -11 0 -18 7 -9 10 -8 11 6 5 10 -3 15 -9 12 -12z m1660 0
c-3 -3 -11 0 -18 7 -9 10 -8 11 6 5 10 -3 15 -9 12 -12z m1365 11 c0 -7 42
-56 128 -148 15 -16 43 -52 62 -79 36 -51 49 -67 99 -127 17 -20 31 -41 31
-47 0 -6 4 -12 8 -14 9 -3 66 -84 174 -243 37 -55 71 -105 75 -111 4 -5 14
-21 22 -35 8 -13 43 -70 78 -127 35 -56 63 -107 63 -112 0 -6 5 -10 10 -10 6
0 10 -4 10 -10 0 -25 -19 -2 -69 83 -30 51 -62 104 -72 119 -11 15 -19 31 -19
37 0 5 -3 11 -7 13 -5 2 -35 44 -67 93 -101 154 -106 161 -126 183 -11 12 -20
24 -20 27 0 4 -16 26 -35 49 -19 24 -35 46 -35 50 0 3 -36 52 -81 109 -44 56
-91 116 -104 133 -13 16 -34 42 -47 56 -13 14 -34 38 -47 54 -13 16 -31 37
-39 47 -10 11 -11 17 -4 17 7 0 12 -3 12 -7z m-7729 -37 c-6 -8 -21 -16 -32
-19 -24 -6 -19 1 13 19 31 16 32 16 19 0z m4388 -2 c13 -12 -8 -10 -29 2 l-25
15 25 -7 c14 -3 27 -8 29 -10z m396 -12 c-3 -3 -11 0 -18 7 -9 10 -8 11 6 5
10 -3 15 -9 12 -12z m2817 -64 c60 -72 40 -57 -27 20 -33 37 -49 58 -36 47 13
-11 41 -41 63 -67z m-9242 68 c0 -2 -7 -7 -16 -10 -8 -3 -12 -2 -9 4 6 10 25
14 25 6z m6132 -39 c43 -21 82 -37 88 -37 5 0 10 -5 10 -10 0 -6 -11 -5 -27 3
-16 8 -58 29 -95 46 -38 18 -68 34 -68 37 0 3 3 3 8 1 4 -2 42 -20 84 -40z
m-4167 23 c-3 -5 -12 -10 -18 -10 -7 0 -6 4 3 10 19 12 23 12 15 0z m-385 -5
c0 -2 -13 -11 -30 -20 -38 -19 -40 -11 -2 9 31 17 32 18 32 11z m-2740 -8 c0
-2 -10 -12 -22 -23 l-23 -19 19 23 c18 21 26 27 26 19z m3090 -2 c0 -2 -10 -9
-22 -15 -22 -11 -22 -10 -4 4 21 17 26 19 26 11z m4565 -5 c3 -6 -1 -7 -9 -4
-18 7 -21 14 -7 14 6 0 13 -4 16 -10z m-6555 -15 c-7 -8 -17 -15 -23 -15 -6 0
-2 7 9 15 25 19 30 19 14 0z m8186 -17 l29 -33 -32 29 c-31 28 -38 36 -30 36
2 0 16 -15 33 -32z m-6621 2 c-3 -5 -12 -10 -18 -10 -7 0 -6 4 3 10 19 12 23
12 15 0z m-2729 -38 c-17 -16 -18 -16 -5 5 7 12 15 20 18 17 3 -2 -3 -12 -13
-22z m2645 -15 c-10 -9 -11 -8 -5 6 3 10 9 15 12 12 3 -3 0 -11 -7 -18z m4849
14 c0 -7 36 -22 43 -18 1 1 16 -7 32 -19 17 -11 39 -24 49 -28 10 -3 17 -9 14
-11 -4 -5 -155 68 -167 81 -2 2 3 4 12 4 10 0 17 -4 17 -9z m-4514 -16 c-11
-8 -25 -15 -30 -15 -6 1 0 7 14 15 32 19 40 18 16 0z m6425 -2 c13 -16 12 -17
-3 -4 -10 7 -18 15 -18 17 0 8 8 3 21 -13z m-8406 -83 c-44 -44 -82 -80 -86
-80 -3 0 31 37 75 83 45 45 83 81 85 79 3 -1 -31 -38 -74 -82z m1606 67 c-10
-9 -11 -8 -5 6 3 10 9 15 12 12 3 -3 0 -11 -7 -18z m7920 -4 c13 -16 12 -17
-3 -4 -10 7 -18 15 -18 17 0 8 8 3 21 -13z m-9276 -58 c-38 -36 -111 -106
-161 -155 -49 -50 -93 -90 -96 -90 -8 0 134 142 241 243 40 37 76 67 79 67 4
0 -24 -30 -63 -65z m6676 48 c13 -16 12 -17 -3 -4 -10 7 -18 15 -18 17 0 8 8
3 21 -13z m-5012 4 c-2 -1 -13 -9 -24 -17 -19 -14 -19 -14 -6 3 7 9 18 17 24
17 6 0 8 -1 6 -3z m-369 -22 c-7 -8 -17 -15 -23 -15 -6 0 -2 7 9 15 25 19 30
19 14 0z m5421 -12 c13 -16 12 -17 -3 -4 -10 7 -18 15 -18 17 0 8 8 3 21 -13z
m-5102 4 c-2 -2 -17 -11 -34 -21 l-30 -17 24 20 c13 12 28 21 34 21 6 0 8 -1
6 -3z m-2929 -11 c0 -2 -7 -7 -16 -10 -8 -3 -12 -2 -9 4 6 10 25 14 25 6z
m7820 -58 c19 -11 52 -29 73 -41 20 -11 37 -25 37 -30 0 -4 -13 1 -29 12 -16
12 -32 21 -35 21 -9 0 -156 91 -156 97 0 3 17 -5 38 -17 20 -13 53 -32 72 -42z
m-5309 9 c-10 -9 -11 -8 -5 6 3 10 9 15 12 12 3 -3 0 -11 -7 -18z m333 8 c-10
-8 -23 -15 -28 -15 -6 0 -1 7 10 15 10 8 23 15 28 15 6 0 1 -7 -10 -15z m7841
-25 c10 -11 16 -20 13 -20 -3 0 -13 9 -23 20 -10 11 -16 20 -13 20 3 0 13 -9
23 -20z m-10955 -2 c-5 -7 -24 -29 -40 -48 -16 -19 -30 -38 -30 -41 0 -3 -8
-15 -17 -27 -38 -44 -51 -62 -138 -192 -49 -74 -93 -139 -98 -145 -13 -17
-107 -165 -107 -169 0 -3 -22 -40 -48 -83 -27 -43 -66 -109 -87 -148 -20 -38
-41 -74 -45 -80 -11 -14 -197 -385 -208 -415 -5 -14 -10 -29 -10 -34 0 -5 -4
-12 -9 -15 -8 -6 -35 -57 -38 -76 -2 -5 -12 -30 -23 -55 -27 -62 -96 -232
-122 -305 -12 -33 -26 -69 -30 -80 -25 -63 -53 -145 -89 -260 -41 -134 -65
-218 -104 -360 -9 -36 -18 -50 -30 -49 -66 3 -77 5 -77 12 0 5 15 7 34 6 19
-2 38 2 43 9 5 7 28 75 52 152 64 215 162 515 184 565 11 25 21 51 23 58 3 17
61 163 83 212 9 19 16 37 17 40 2 10 17 46 45 108 16 34 29 67 29 72 0 6 4 10
10 10 5 0 9 3 8 8 -5 14 133 289 237 472 66 117 197 334 205 340 4 3 9 12 13
20 8 17 30 53 37 60 14 14 50 70 50 79 0 5 3 11 8 13 4 2 21 23 37 48 17 24
36 51 42 60 7 8 25 34 40 57 49 73 144 193 154 193 6 0 5 -5 -1 -12z m8431 -6
c-7 -2 -18 1 -23 6 -8 8 -4 9 13 5 13 -4 18 -8 10 -11z m1465 -3 c19 -22 19
-22 -3 -8 -13 8 -23 17 -23 21 0 12 6 9 26 -13z m-6856 -4 c0 -2 -10 -9 -22
-15 -22 -11 -22 -10 -4 4 21 17 26 19 26 11z m7982 -70 c11 -21 8 -18 -32 30
-24 29 -24 29 -2 10 13 -11 28 -29 34 -40z m-9792 30 c-7 -8 -17 -15 -23 -15
-6 0 -2 7 9 15 25 19 30 19 14 0z m1755 5 c-3 -5 -12 -10 -18 -10 -7 0 -6 4 3
10 19 12 23 12 15 0z m-35 -17 c0 -5 -14 -16 -30 -25 -38 -21 -40 -9 -2 14 33
20 32 20 32 11z m5328 -40 c6 -6 21 -15 32 -18 11 -3 20 -11 20 -16 0 -5 6 -9
13 -9 7 0 22 -8 33 -18 10 -10 37 -29 59 -42 21 -13 46 -30 55 -38 8 -7 47
-37 85 -65 39 -29 72 -54 75 -57 3 -3 39 -32 80 -65 41 -32 77 -62 80 -65 3
-3 18 -16 34 -28 20 -15 24 -22 12 -22 -9 0 -16 3 -16 8 0 6 -55 53 -138 117
-7 5 -18 15 -25 20 -65 53 -117 93 -160 123 -29 19 -53 39 -55 44 -2 4 -8 8
-13 8 -6 0 -15 4 -22 10 -58 47 -77 61 -77 55 0 -4 -13 5 -30 18 -16 14 -39
28 -50 32 -11 3 -20 10 -20 15 0 5 -9 12 -20 15 -11 3 -20 11 -20 16 0 9 44
-15 68 -38z m-7100 -2 c-13 -15 -25 -27 -27 -25 -4 4 39 54 47 54 2 0 -7 -13
-20 -29z m1702 -5 c0 -2 -11 -11 -25 -20 -14 -9 -25 -13 -25 -8 0 5 10 14 23
20 27 13 27 13 27 8z m2230 -26 c0 -5 -4 -10 -10 -10 -5 0 -10 5 -10 10 0 6 5
10 10 10 6 0 10 -4 10 -10z m956 -2 c3 -4 -1 -5 -10 -4 -8 1 -18 5 -22 8 -3 4
1 5 10 4 8 -1 18 -5 22 -8z m4024 -75 c0 -8 -9 0 -50 45 l-45 47 48 -45 c26
-24 47 -45 47 -47z m989 53 c-3 -3 -11 5 -18 17 -13 21 -12 21 5 5 10 -10 16
-20 13 -22z m-9949 4 c-6 -11 -13 -20 -16 -20 -2 0 0 9 6 20 6 11 13 20 16 20
2 0 0 -9 -6 -20z m1684 8 c-3 -7 -69 -58 -146 -113 -77 -55 -178 -131 -223
-170 -45 -38 -106 -90 -134 -114 -28 -24 -81 -72 -118 -107 -37 -35 -69 -62
-71 -59 -2 2 24 30 58 62 34 32 74 69 89 83 15 14 49 43 76 65 28 22 61 51 75
64 14 13 61 51 105 84 44 32 82 62 85 66 3 3 37 27 75 53 39 26 84 59 100 72
35 29 36 30 29 14z m2216 2 c-8 -5 -19 -10 -25 -10 -5 0 -3 5 5 10 8 5 20 10
25 10 6 0 3 -5 -5 -10z m1087 4 c-3 -3 -12 -4 -19 -1 -8 3 -5 6 6 6 11 1 17
-2 13 -5z m-3587 -8 c0 -3 -4 -8 -10 -11 -5 -3 -10 -1 -10 4 0 6 5 11 10 11 6
0 10 -2 10 -4z m3680 -2 c0 -8 -19 -13 -24 -6 -3 5 1 9 9 9 8 0 15 -2 15 -3z
m-1315 -14 c-3 -5 -12 -10 -18 -10 -7 0 -6 4 3 10 19 12 23 12 15 0z m-4815
-3 c0 -2 -10 -12 -22 -23 l-23 -19 19 23 c18 21 26 27 26 19z m985 -55 l-39
-37 35 41 c19 22 36 39 39 37 2 -2 -13 -20 -35 -41z m3730 38 c-3 -5 -12 -10
-18 -10 -7 0 -6 4 3 10 19 12 23 12 15 0z m1585 4 c0 -8 -19 -13 -24 -6 -3 5
1 9 9 9 8 0 15 -2 15 -3z m2330 -19 c13 -14 21 -25 18 -25 -2 0 -15 11 -28 25
-13 14 -21 25 -18 25 2 0 15 -11 28 -25z m-7426 -38 c-22 -24 -41 -42 -43 -40
-6 4 62 81 73 82 5 1 -9 -18 -30 -42z m5219 26 c-7 -2 -19 -2 -25 0 -7 3 -2 5
12 5 14 0 19 -2 13 -5z m-1883 -13 c-8 -5 -19 -10 -25 -10 -5 0 -3 5 5 10 8 5
20 10 25 10 6 0 3 -5 -5 -10z m1927 4 c-3 -3 -12 -4 -19 -1 -8 3 -5 6 6 6 11
1 17 -2 13 -5z m4623 -58 c23 -30 24 -30 1 -11 -13 11 -29 33 -37 50 -8 18 -9
22 -2 11 7 -10 24 -33 38 -50z m-4583 48 c-3 -3 -12 -4 -19 -1 -8 3 -5 6 6 6
11 1 17 -2 13 -5z m-2042 -14 c-27 -12 -43 -12 -25 0 8 5 22 9 30 9 10 0 8 -3
-5 -9z m4239 -19 c-2 -3 -12 3 -22 13 -16 17 -16 18 5 5 12 -7 20 -15 17 -18z
m-4289 9 c-3 -5 -12 -10 -18 -10 -7 0 -6 4 3 10 19 12 23 12 15 0z m2195 0 c0
-5 -5 -10 -11 -10 -5 0 -7 5 -4 10 3 6 8 10 11 10 2 0 4 -4 4 -10z m34 -8 c3
-5 -1 -9 -9 -9 -8 0 -12 4 -9 9 3 4 7 8 9 8 2 0 6 -4 9 -8z m-5709 -22 c-10
-11 -22 -20 -27 -20 -10 0 24 38 36 39 5 1 1 -8 -9 -19z m7808 0 c9 -11 13
-20 7 -20 -5 0 -14 9 -20 20 -6 11 -9 20 -8 20 2 0 11 -9 21 -20z m-7643 -62
l-53 -53 49 57 c27 31 50 55 53 53 2 -2 -20 -28 -49 -57z m5630 52 c0 -5 -2
-10 -4 -10 -3 0 -8 5 -11 10 -3 6 -1 10 4 10 6 0 11 -4 11 -10z m-2490 -5 c0
-2 -10 -9 -22 -15 -22 -11 -22 -10 -4 4 21 17 26 19 26 11z m2565 -16 c5 -5
-6 -4 -25 2 -45 15 -54 24 -15 15 17 -4 34 -12 40 -17z m-6924 -12 c-10 -9
-11 -8 -5 6 3 10 9 15 12 12 3 -3 0 -11 -7 -18z m1010 -4 c-5 -10 -22 -29 -37
-43 -23 -21 -22 -18 7 17 37 46 45 53 30 26z m3299 13 c0 -2 -7 -7 -16 -10 -8
-3 -12 -2 -9 4 6 10 25 14 25 6z m4605 -7 c11 -16 1 -19 -13 -3 -7 8 -8 14 -3
14 5 0 13 -5 16 -11z m1325 -14 c14 -19 14 -19 -2 -6 -10 7 -18 18 -18 24 0 6
1 8 3 6 1 -2 9 -13 17 -24z m-5975 5 c-3 -5 -12 -10 -18 -10 -7 0 -6 4 3 10
19 12 23 12 15 0z m2725 0 c0 -13 -11 -13 -30 0 -12 8 -11 10 8 10 12 0 22 -4
22 -10z m80 -32 c10 -6 7 -7 -10 -2 -14 3 -32 11 -40 16 -10 6 -7 7 10 2 14
-3 32 -11 40 -16z m1928 -35 c7 -7 9 -13 5 -13 -5 0 -25 17 -44 37 -29 33 -30
34 -4 13 16 -14 35 -31 43 -37z m-4803 37 c-3 -5 -14 -10 -23 -9 -14 0 -13 2
3 9 27 11 27 11 20 0z m6080 -10 c3 -6 -1 -7 -9 -4 -18 7 -21 14 -7 14 6 0 13
-4 16 -10z m-6135 -10 c-8 -5 -19 -10 -25 -10 -5 0 -3 5 5 10 8 5 20 10 25 10
6 0 3 -5 -5 -10z m7151 -7 c13 -16 12 -17 -3 -4 -10 7 -18 15 -18 17 0 8 8 3
21 -13z m-11331 3 c0 -2 -8 -10 -17 -17 -16 -13 -17 -12 -4 4 13 16 21 21 21
13z m7185 -6 c3 -5 1 -10 -4 -10 -6 0 -11 5 -11 10 0 6 2 10 4 10 3 0 8 -4 11
-10z m-6206 -27 c-44 -54 -128 -146 -113 -123 19 28 116 140 121 140 3 0 -1
-8 -8 -17z m226 7 c-3 -5 -12 -10 -18 -10 -7 0 -6 4 3 10 19 12 23 12 15 0z
m2905 6 c0 -2 -7 -7 -16 -10 -8 -3 -12 -2 -9 4 6 10 25 14 25 6z m3145 -14
c11 -6 15 -12 8 -12 -6 0 -15 5 -18 10 -4 6 -10 8 -14 6 -4 -3 -13 0 -21 5
-23 14 20 6 45 -9z m-3209 -11 c-6 -9 -46 -22 -46 -15 0 3 10 9 23 14 29 11
29 11 23 1z m5029 -1 c3 -6 -1 -7 -9 -4 -18 7 -21 14 -7 14 6 0 13 -4 16 -10z
m2286 -7 c13 -16 12 -17 -3 -4 -10 7 -18 15 -18 17 0 8 8 3 21 -13z m-3961
-43 c22 -11 40 -22 40 -25 0 -5 -119 50 -128 60 -9 9 40 -11 88 -35z m1790
-59 c0 -3 -15 8 -32 25 -53 47 -68 63 -68 70 0 4 23 -15 50 -42 28 -27 50 -51
50 -53z m1200 79 c6 -11 9 -20 8 -20 -2 0 -11 9 -21 20 -9 11 -13 20 -7 20 5
0 14 -9 20 -20z m-9220 7 c0 -2 -17 -19 -37 -38 l-37 -34 30 37 c25 31 44 46
44 35z m1011 -50 c-10 -9 -11 -8 -5 6 3 10 9 15 12 12 3 -3 0 -11 -7 -18z
m8240 -4 c13 -16 12 -17 -3 -4 -10 7 -18 15 -18 17 0 8 8 3 21 -13z m999 -14
c15 -28 5 -23 -15 7 -9 15 -12 23 -6 20 6 -4 16 -16 21 -27z m-3930 -5 c0 -2
-9 0 -20 6 -11 6 -20 13 -20 16 0 2 9 0 20 -6 11 -6 20 -13 20 -16z m-3635 6
c-3 -5 -12 -10 -18 -10 -7 0 -6 4 3 10 19 12 23 12 15 0z m-3973 -42 c-8 -8
-9 -4 -5 13 4 13 8 18 11 10 2 -7 -1 -18 -6 -23z m1218 29 c0 -2 -12 -14 -27
-28 l-28 -24 24 28 c23 25 31 32 31 24z m6456 -19 c3 -4 -1 -5 -10 -4 -8 1
-18 5 -22 8 -3 4 1 5 10 4 8 -1 18 -5 22 -8z m1553 -135 c2 -2 0 -3 -5 -3 -11
0 -134 116 -134 127 0 4 30 -22 67 -57 37 -36 69 -66 72 -67z m200 40 c2 -2 2
-5 0 -8 -3 -2 -27 19 -55 48 l-49 52 50 -45 c27 -25 52 -46 54 -47z m-8459 73
c0 -2 -8 -10 -17 -17 -16 -13 -17 -12 -4 4 13 16 21 21 21 13z m9661 -48 c31
-43 17 -34 -21 15 -19 23 -26 36 -17 28 10 -8 27 -27 38 -43z m-236 32 c3 -5
1 -10 -4 -10 -6 0 -11 5 -11 10 0 6 2 10 4 10 3 0 8 -4 11 -10z m-9477 -55
c-13 -19 -29 -37 -36 -40 -7 -2 2 13 19 35 40 49 47 51 17 5z m6922 -2 c0 -7
-39 17 -46 28 -3 6 5 3 20 -6 14 -10 26 -19 26 -22z m2578 12 c-3 -3 -9 2 -12
12 -6 14 -5 15 5 6 7 -7 10 -15 7 -18z m2254 -102 c35 -71 71 -139 78 -153 8
-14 15 -27 15 -30 2 -5 74 -159 82 -172 2 -5 1 -8 -4 -8 -4 0 -16 20 -27 43
-32 71 -186 380 -208 415 -11 17 -15 32 -10 32 5 0 38 -57 74 -127z m-11532
104 c0 -2 -12 -14 -27 -28 l-28 -24 24 28 c23 25 31 32 31 24z m1010 -11 c0
-3 -4 -8 -10 -11 -5 -3 -10 -1 -10 4 0 6 5 11 10 11 6 0 10 -2 10 -4z m8300
-21 c0 -7 4 -15 8 -17 8 -3 93 -113 107 -138 12 -22 -6 -3 -45 50 -19 25 -37
47 -40 50 -30 27 -64 90 -40 75 6 -3 10 -12 10 -20z m1175 15 c3 -5 1 -10 -4
-10 -6 0 -11 5 -11 10 0 6 2 10 4 10 3 0 8 -4 11 -10z m-7929 -15 c-11 -8 -25
-15 -30 -15 -6 1 0 7 14 15 32 19 40 18 16 0z m4194 -5 c0 -5 -2 -10 -4 -10
-3 0 -8 5 -11 10 -3 6 -1 10 4 10 6 0 11 -4 11 -10z m1614 -56 c52 -59 42 -56
-19 7 -28 27 -43 47 -35 43 8 -3 32 -26 54 -50z m-1579 28 c-3 -3 -11 0 -18 7
-9 10 -8 11 6 5 10 -3 15 -9 12 -12z m-6835 4 c0 -2 -8 -10 -17 -17 -16 -13
-17 -12 -4 4 13 16 21 21 21 13z m9604 -12 c3 -8 2 -12 -4 -9 -6 3 -10 10 -10
16 0 14 7 11 14 -7z m975 -20 c12 -20 20 -38 18 -40 -2 -2 -14 14 -26 36 -28
50 -21 53 8 4z m-2391 -9 c48 -45 37 -45 -14 0 -21 19 -35 35 -31 35 5 0 25
-16 45 -35z m-7014 -35 c-97 -103 -156 -161 -160 -157 -2 2 42 51 98 110 56
59 104 105 106 102 2 -2 -18 -27 -44 -55z m5717 43 c13 -16 12 -17 -3 -4 -10
7 -18 15 -18 17 0 8 8 3 21 -13z m-7152 -38 c-18 -25 -34 -45 -36 -45 -6 0 6
19 35 58 37 49 38 38 1 -13z m9895 19 c3 -8 2 -12 -4 -9 -6 3 -10 10 -10 16 0
14 7 11 14 -7z m-10834 2 c0 -2 -8 -10 -17 -17 -16 -13 -17 -12 -4 4 13 16 21
21 21 13z m2150 -9 c0 -2 -10 -12 -22 -23 l-23 -19 19 23 c18 21 26 27 26 19z
m6001 -14 c13 -16 12 -17 -3 -4 -10 7 -18 15 -18 17 0 8 8 3 21 -13z m-7021
-23 c-12 -16 -24 -30 -26 -30 -3 0 4 14 16 30 12 17 24 30 26 30 3 0 -4 -13
-16 -30z m10893 -7 c48 -92 63 -119 67 -123 16 -16 49 -90 40 -90 -5 0 -10 7
-10 15 0 8 -4 15 -10 15 -5 0 -10 4 -10 9 0 5 -24 52 -54 105 -30 53 -51 96
-46 96 5 0 15 -12 23 -27z m-2520 -60 c40 -42 82 -88 95 -101 13 -13 19 -22
14 -21 -12 5 -196 199 -188 199 4 0 39 -35 79 -77z m172 66 c11 -16 1 -19 -13
-3 -7 8 -8 14 -3 14 5 0 13 -5 16 -11z m-1445 -25 c0 -2 -9 0 -20 6 -11 6 -20
13 -20 16 0 2 9 0 20 -6 11 -6 20 -13 20 -16z m-8279 -7 c-10 -9 -11 -8 -5 6
3 10 9 15 12 12 3 -3 0 -11 -7 -18z m10933 7 c5 -14 4 -15 -9 -4 -17 14 -19
20 -6 20 5 0 12 -7 15 -16z m956 -14 c6 -11 8 -20 6 -20 -3 0 -10 9 -16 20 -6
11 -8 20 -6 20 3 0 10 -9 16 -20z m-10952 -10 c-7 -11 -17 -20 -22 -20 -5 0
-1 9 9 20 10 11 20 20 22 20 2 0 -2 -9 -9 -20z m8842 -15 c19 -19 32 -35 29
-35 -3 0 -20 16 -39 35 -19 19 -32 35 -29 35 3 0 20 -16 39 -35z m-7670 8 c-1
-5 -17 -26 -37 -48 -38 -43 -34 -28 7 23 27 33 30 36 30 25z m8855 -13 c10
-11 14 -20 9 -20 -5 0 -15 9 -22 20 -7 11 -11 20 -9 20 2 0 12 -9 22 -20z
m-9845 -10 c-6 -11 -13 -20 -16 -20 -2 0 0 9 6 20 6 11 13 20 16 20 2 0 0 -9
-6 -20z m-1159 -13 c-10 -9 -11 -8 -5 6 3 10 9 15 12 12 3 -3 0 -11 -7 -18z
m8403 15 c3 -5 -1 -9 -9 -9 -8 0 -12 4 -9 9 3 4 7 8 9 8 2 0 6 -4 9 -8z m3550
-8 c3 -8 2 -12 -4 -9 -6 3 -10 10 -10 16 0 14 7 11 14 -7z m-11004 -1 c-1 -5
-12 -21 -26 -38 -26 -30 -23 -21 6 23 16 23 20 27 20 15z m9918 -84 c29 -45
49 -78 44 -75 -13 8 -113 156 -105 155 5 0 32 -36 61 -80z m172 36 c0 -5 -5
-3 -10 5 -5 8 -10 20 -10 25 0 6 5 3 10 -5 5 -8 10 -19 10 -25z m-9912 5 c-7
-10 -14 -17 -17 -15 -4 4 18 35 25 35 2 0 -1 -9 -8 -20z m7356 -19 c-3 -3 -15
6 -27 18 l-22 24 27 -19 c14 -10 24 -21 22 -23z m1436 -34 c-3 -2 -20 15 -39
37 l-35 41 39 -37 c22 -21 37 -39 35 -41z m-7860 18 c-7 -9 -15 -13 -17 -11
-6 6 20 36 26 30 2 -2 -2 -10 -9 -19z m9938 0 c-3 -3 -9 2 -12 12 -6 14 -5 15
5 6 7 -7 10 -15 7 -18z m-12028 5 c0 -5 -5 -10 -11 -10 -5 0 -7 5 -4 10 3 6 8
10 11 10 2 0 4 -4 4 -10z m2313 -12 c-11 -13 -33 -36 -48 -53 -15 -16 -39 -45
-53 -63 -13 -18 -27 -30 -30 -27 -3 2 17 31 45 62 27 32 58 68 68 81 11 12 24
22 29 22 5 0 0 -10 -11 -22z m-1393 -8 c-6 -11 -13 -20 -16 -20 -2 0 0 9 6 20
6 11 13 20 16 20 2 0 0 -9 -6 -20z m2560 16 c0 -2 -8 -10 -17 -17 -16 -13 -17
-12 -4 4 13 16 21 21 21 13z m7650 -47 c15 -28 5 -23 -15 7 -9 15 -12 23 -6
20 6 -4 16 -16 21 -27z m920 11 c6 -11 8 -20 6 -20 -3 0 -10 9 -16 20 -6 11
-8 20 -6 20 3 0 10 -9 16 -20z m-10962 -28 c-76 -124 -114 -182 -120 -182 -4
0 14 33 41 73 26 39 57 89 70 110 12 20 25 37 27 37 3 0 -5 -17 -18 -38z m977
30 c-6 -4 -33 -35 -59 -69 -27 -35 -53 -63 -58 -63 -5 0 1 10 12 23 12 12 38
43 58 70 20 26 41 47 47 47 7 0 7 -3 0 -8z m7909 -8 c3 -8 2 -12 -4 -9 -6 3
-10 10 -10 16 0 14 7 11 14 -7z m-10016 -29 c-6 -14 -13 -23 -15 -21 -5 5 15
46 22 46 3 0 -1 -11 -7 -25z m926 0 c-9 -14 -18 -25 -21 -25 -5 0 5 18 20 38
17 22 18 13 1 -13z m7741 7 c-3 -3 -11 0 -18 7 -9 10 -8 11 6 5 10 -3 15 -9
12 -12z m-5225 4 c0 -2 -8 -10 -17 -17 -16 -13 -17 -12 -4 4 13 16 21 21 21
13z m6386 -23 c-7 -7 -26 7 -26 19 0 6 6 6 15 -2 9 -7 13 -15 11 -17z m219 -3
c10 -11 16 -20 13 -20 -3 0 -13 9 -23 20 -10 11 -16 20 -13 20 3 0 13 -9 23
-20z m2315 -92 c60 -123 71 -148 65 -148 -2 0 -34 59 -70 130 -36 72 -62 130
-58 130 5 0 33 -51 63 -112z m-1137 45 c20 -29 34 -53 29 -53 -7 0 -72 95 -72
107 0 3 1 4 3 2 2 -2 20 -28 40 -56z m907 27 c6 -11 8 -20 6 -20 -3 0 -10 9
-16 20 -6 11 -8 20 -6 20 3 0 10 -9 16 -20z m-2270 -15 c13 -14 19 -25 14 -25
-8 1 -50 50 -41 50 2 0 14 -11 27 -25z m1151 8 c13 -16 12 -17 -3 -4 -10 7
-18 15 -18 17 0 8 8 3 21 -13z m-11083 -90 c-27 -54 -54 -102 -60 -108 -11
-11 66 147 89 182 29 43 21 23 -29 -74z m965 82 c-3 -9 -8 -14 -10 -11 -3 3
-2 9 2 15 9 16 15 13 8 -4z m9226 -59 c-2 -2 -13 8 -23 22 l-19 27 24 -22 c12
-12 21 -24 18 -27z m946 -24 c26 -49 12 -35 -32 33 -14 22 -18 34 -10 26 9 -7
28 -34 42 -59z m1093 37 c-3 -8 -7 -3 -11 10 -4 17 -3 21 5 13 5 -5 8 -16 6
-23z m-9979 -41 c-53 -67 -63 -78 -71 -78 -7 0 1 11 64 84 15 17 28 35 28 40
0 5 3 7 6 3 4 -3 -9 -25 -27 -49z m7726 32 c10 -11 16 -20 13 -20 -3 0 -13 9
-23 20 -10 11 -16 20 -13 20 3 0 13 -9 23 -20z m3260 -72 c21 -51 45 -108 52
-125 8 -20 9 -33 3 -33 -5 0 -10 5 -10 11 0 6 -13 41 -30 78 -33 76 -53 124
-54 131 -1 3 -5 11 -9 18 -5 6 -4 12 1 12 5 0 26 -42 47 -92z m-12305 72 c0
-5 -5 -10 -11 -10 -5 0 -7 5 -4 10 3 6 8 10 11 10 2 0 4 -4 4 -10z m1108 -29
c-7 -12 -16 -21 -21 -21 -4 0 0 11 10 24 22 29 30 27 11 -3z m7977 -21 c10
-11 16 -20 13 -20 -3 0 -13 9 -23 20 -10 11 -16 20 -13 20 3 0 13 -9 23 -20z
m220 -10 l20 -25 -22 19 c-13 11 -23 24 -23 29 0 6 1 8 3 6 1 -2 11 -15 22
-29z m2032 5 c0 -20 -4 -19 -17 5 -8 15 -8 18 3 14 8 -3 14 -11 14 -19z
m-11367 1 c0 -3 -4 -8 -10 -11 -5 -3 -10 -1 -10 4 0 6 5 11 10 11 6 0 10 -2
10 -4z m1104 -21 c-4 -8 -11 -15 -16 -15 -6 0 -5 6 2 15 7 8 14 15 16 15 2 0
1 -7 -2 -15z m8055 -39 c-3 -3 -11 5 -18 17 -13 21 -12 21 5 5 10 -10 16 -20
13 -22z m1135 -9 c14 -21 26 -41 26 -44 0 -9 -35 38 -50 67 -17 33 -8 24 24
-23z m-926 8 c-3 -3 -9 2 -12 12 -6 14 -5 15 5 6 7 -7 10 -15 7 -18z m1116 9
c5 -14 4 -15 -9 -4 -17 14 -19 20 -6 20 5 0 12 -7 15 -16z m-10329 -3 c3 -5 2
-12 -3 -15 -5 -3 -9 1 -9 9 0 17 3 19 12 6z m894 -36 c-18 -25 -34 -45 -36
-45 -6 0 6 19 35 58 37 49 38 38 1 -13z m-1098 12 c-10 -9 -11 -8 -5 6 3 10 9
15 12 12 3 -3 0 -11 -7 -18z m11449 3 c6 -11 8 -20 6 -20 -3 0 -10 9 -16 20
-6 11 -8 20 -6 20 3 0 10 -9 16 -20z m-10132 -10 c-7 -10 -14 -18 -15 -16 -6
6 9 36 18 36 5 0 4 -9 -3 -20z m9246 -30 c-6 -5 -24 21 -24 34 0 6 6 1 14 -10
8 -10 12 -21 10 -24z m-10392 -2 c-53 -86 -63 -105 -74 -130 -7 -16 -16 -28
-21 -28 -10 0 -13 -7 52 103 29 48 55 87 57 87 3 0 -3 -15 -14 -32z m-1082 18
c0 -3 -4 -8 -10 -11 -5 -3 -10 -1 -10 4 0 6 5 11 10 11 6 0 10 -2 10 -4z m900
0 c0 -2 -8 -10 -17 -17 -16 -13 -17 -12 -4 4 13 16 21 21 21 13z m9286 -37
c14 -22 24 -43 21 -45 -2 -2 -12 12 -23 31 -10 19 -22 35 -26 35 -5 0 -8 5 -8
10 0 19 10 10 36 -31z m-7995 8 c-10 -9 -11 -8 -5 6 3 10 9 15 12 12 3 -3 0
-11 -7 -18z m8190 6 c13 -16 12 -17 -3 -4 -17 13 -22 21 -14 21 2 0 10 -8 17
-17z m2009 -18 c0 -5 -5 -3 -10 5 -5 8 -10 20 -10 25 0 6 5 3 10 -5 5 -8 10
-19 10 -25z m184 19 c3 -8 2 -12 -4 -9 -6 3 -10 10 -10 16 0 14 7 11 14 -7z
m-12610 -41 c-9 -21 -21 -50 -27 -65 -6 -16 -15 -28 -19 -28 -5 0 -2 12 6 28
7 15 21 44 29 65 9 20 19 37 22 37 3 0 -2 -17 -11 -37z m11341 9 c-3 -3 -11 0
-18 7 -9 10 -8 11 6 5 10 -3 15 -9 12 -12z m195 -2 c6 -11 8 -20 6 -20 -3 0
-10 9 -16 20 -6 11 -8 20 -6 20 3 0 10 -9 16 -20z m-9356 -37 c-20 -27 -39
-50 -42 -53 -12 -11 35 63 51 81 32 35 28 20 -9 -28z m8267 30 c13 -16 12 -17
-3 -4 -17 13 -22 21 -14 21 2 0 10 -8 17 -17z m2186 -8 c6 -14 8 -25 4 -25 -4
0 -13 11 -19 25 -6 14 -8 25 -4 25 4 0 12 -11 19 -25z m-10663 -30 c-14 -19
-28 -35 -30 -35 -7 0 29 54 41 62 18 14 16 8 -11 -27z m9430 -57 c15 -27 22
-48 16 -48 -5 0 -10 4 -10 10 0 5 -14 33 -31 62 -17 29 -24 46 -16 38 7 -8 26
-36 41 -62z m1059 52 c3 -11 1 -18 -4 -14 -5 3 -9 12 -9 20 0 20 7 17 13 -6z
m962 -28 c11 -26 20 -49 20 -52 1 -3 8 -21 17 -40 17 -39 42 -112 40 -120 0
-3 3 -9 8 -15 4 -5 15 -35 25 -65 10 -30 22 -61 28 -67 5 -7 7 -13 3 -13 -3 0
1 -17 10 -37 9 -21 17 -42 18 -48 2 -5 9 -30 16 -55 16 -52 19 -65 23 -85 2
-8 6 -18 10 -21 4 -4 7 -17 7 -29 0 -11 4 -25 9 -31 4 -5 14 -31 20 -59 7 -27
17 -61 22 -75 5 -14 11 -37 13 -52 3 -15 7 -31 10 -36 3 -5 7 -19 9 -33 3 -13
13 -53 22 -89 21 -80 25 -97 31 -135 3 -16 14 -64 24 -106 10 -42 21 -95 25
-118 l6 -41 -75 37 c-41 21 -73 40 -71 41 6 6 75 -21 75 -29 0 -4 11 -9 24
-11 24 -5 25 -3 20 36 -3 23 -8 48 -10 56 -3 8 -8 26 -10 40 -3 14 -16 70 -30
125 -14 55 -31 127 -39 160 -7 33 -18 72 -24 88 -6 15 -8 27 -6 27 2 0 0 11
-5 25 -5 14 -12 36 -15 48 -2 12 -21 74 -40 137 -20 63 -38 120 -39 125 -3 13
-46 145 -53 165 -4 8 -7 17 -7 20 -1 3 -6 19 -13 35 -6 17 -30 82 -53 145 -37
103 -64 171 -77 193 -2 4 -1 7 4 7 4 0 17 -21 28 -48z m-12545 28 c0 -5 -5
-10 -11 -10 -5 0 -7 5 -4 10 3 6 8 10 11 10 2 0 4 -4 4 -10z m9409 -24 c-3 -3
-11 5 -18 17 -13 21 -12 21 5 5 10 -10 16 -20 13 -22z m196 14 c10 -11 16 -20
13 -20 -3 0 -13 9 -23 20 -10 11 -16 20 -13 20 3 0 13 -9 23 -20z m2200 -65
c15 -33 22 -55 17 -50 -13 14 -66 132 -53 120 5 -5 22 -37 36 -70z m-1091 29
c3 -8 2 -12 -4 -9 -6 3 -10 10 -10 16 0 14 7 11 14 -7z m895 -14 c11 -24 11
-24 -3 -6 -9 11 -16 24 -16 30 0 12 5 7 19 -24z m-10567 -9 c-9 -16 -18 -28
-21 -26 -4 5 27 55 34 55 2 0 -4 -13 -13 -29z m8402 4 c9 -14 13 -25 8 -25 -5
0 -14 11 -20 25 -6 14 -10 25 -8 25 2 0 11 -11 20 -25z m-9483 -12 c-12 -20
-14 -14 -5 12 4 9 9 14 11 11 3 -2 0 -13 -6 -23z m1248 -48 c-28 -41 -54 -75
-56 -75 -3 0 2 10 11 23 8 12 30 45 48 74 18 29 37 53 41 53 5 0 -15 -34 -44
-75z m8436 55 c10 -11 16 -20 13 -20 -3 0 -13 9 -23 20 -10 11 -16 20 -13 20
3 0 13 -9 23 -20z m-10584 -13 c-10 -9 -11 -8 -5 6 3 10 9 15 12 12 3 -3 0
-11 -7 -18z m11673 -3 c3 -8 2 -12 -4 -9 -6 3 -10 10 -10 16 0 14 7 11 14 -7z
m-10584 2 c0 -3 -4 -8 -10 -11 -5 -3 -10 -1 -10 4 0 6 5 11 10 11 6 0 10 -2
10 -4z m11483 -26 c3 -11 3 -20 1 -20 -2 0 -8 9 -14 20 -6 11 -7 20 -2 20 6 0
12 -9 15 -20z m-12593 -30 c-11 -22 -23 -40 -25 -40 -3 0 4 18 15 40 11 22 23
40 25 40 3 0 -4 -18 -15 -40z m1080 10 c-6 -11 -13 -20 -16 -20 -2 0 0 9 6 20
6 11 13 20 16 20 2 0 0 -9 -6 -20z m900 16 c0 -2 -7 -9 -15 -16 -13 -11 -14
-10 -9 4 5 14 24 23 24 12z m8661 -13 c13 -16 12 -17 -3 -4 -17 13 -22 21 -14
21 2 0 10 -8 17 -17z m887 -8 c-3 -3 -9 2 -12 12 -6 14 -5 15 5 6 7 -7 10 -15
7 -18z m186 9 c3 -8 2 -12 -4 -9 -6 3 -10 10 -10 16 0 14 7 11 14 -7z m-1266
-19 c-3 -3 -9 2 -12 12 -6 14 -5 15 5 6 7 -7 10 -15 7 -18z m2181 -50 c0 -5
-6 1 -14 15 -8 14 -14 30 -14 35 0 6 6 -1 14 -15 8 -14 14 -29 14 -35z m181
11 c0 -12 -5 -7 -19 24 -11 24 -11 24 3 6 9 -11 16 -24 16 -30z m-9660 30 c0
-2 -8 -10 -17 -17 -16 -13 -17 -12 -4 4 13 16 21 21 21 13z m-2103 -39 c-6
-15 -16 -27 -20 -27 -5 0 0 13 9 30 22 36 29 34 11 -3z m9433 13 c0 -5 -2 -10
-4 -10 -3 0 -8 5 -11 10 -3 6 -1 10 4 10 6 0 11 -4 11 -10z m1270 -25 c0 -5
-5 -3 -10 5 -5 8 -10 20 -10 25 0 6 5 3 10 -5 5 -8 10 -19 10 -25z m-190 10
c7 -9 8 -15 2 -15 -5 0 -12 7 -16 15 -3 8 -4 15 -2 15 2 0 9 -7 16 -15z
m-11592 -20 c-6 -14 -13 -23 -15 -21 -5 5 15 46 22 46 3 0 -1 -11 -7 -25z
m1962 21 c0 -2 -7 -9 -15 -16 -13 -11 -14 -10 -9 4 5 14 24 23 24 12z m8600
-70 c0 -11 0 -11 -29 34 l-23 35 26 -30 c14 -16 26 -34 26 -39z m2299 34 c11
-24 11 -24 -3 -6 -9 11 -16 24 -16 30 0 12 5 7 19 -24z m-10731 0 c-7 -10 -14
-17 -17 -15 -4 4 18 35 25 35 2 0 -1 -9 -8 -20z m7499 -83 c13 -15 19 -27 14
-27 -5 0 -16 12 -26 26 -9 14 -33 44 -52 67 l-36 42 39 -41 c22 -22 49 -52 61
-67z m1107 87 c3 -8 2 -12 -4 -9 -6 3 -10 10 -10 16 0 14 7 11 14 -7z m1945
-16 c6 -18 7 -28 2 -23 -10 12 -25 55 -18 55 3 0 10 -15 16 -32z m-11658 -61
c-20 -41 -38 -72 -40 -70 -6 4 62 143 70 143 3 0 -10 -33 -30 -73z m2062 38
c-10 -13 -22 -25 -27 -25 -5 0 1 11 14 25 30 32 36 32 13 0z m-3112 -12 c-12
-20 -14 -14 -5 12 4 9 9 14 11 11 3 -2 0 -13 -6 -23z m1931 -2 c-9 -16 -18
-28 -21 -26 -4 5 27 55 34 55 2 0 -4 -13 -13 -29z m8858 9 c6 -11 8 -20 6 -20
-3 0 -10 9 -16 20 -6 11 -8 20 -6 20 3 0 10 -9 16 -20z m1054 4 c3 -8 2 -12
-4 -9 -6 3 -10 10 -10 16 0 14 7 11 14 -7z m-12769 -21 c-3 -16 -13 -41 -20
-58 -35 -74 -128 -381 -196 -644 -53 -207 -52 -204 -64 -268 -4 -24 -12 -43
-16 -43 -5 0 -7 10 -5 23 3 12 8 36 11 52 3 17 9 39 12 50 4 11 8 27 9 35 1 8
5 24 8 35 3 11 15 63 28 115 12 52 24 97 27 100 6 5 7 7 15 57 3 15 15 55 26
88 11 33 19 61 18 61 -7 4 138 424 146 424 4 0 5 -12 1 -27z m3034 -23 c-17
-27 -33 -50 -35 -50 -6 0 -3 5 33 63 13 20 25 37 28 37 3 0 -9 -22 -26 -50z
m9572 -11 c16 -34 29 -63 27 -65 -2 -2 -18 26 -36 61 -17 36 -30 65 -27 65 3
0 19 -27 36 -61z m1236 24 c33 -78 41 -103 33 -98 -5 3 -14 22 -21 43 -7 20
-19 47 -27 60 -8 12 -10 22 -6 22 5 0 14 -12 21 -27z m-166 -50 c10 -24 16
-43 13 -43 -7 0 -44 89 -43 103 0 7 3 5 6 -3 4 -8 14 -34 24 -57z m-9693 16
c-13 -17 -29 -41 -35 -52 -7 -12 -13 -16 -13 -9 0 12 58 92 67 92 3 0 -6 -14
-19 -31z m-1148 7 c0 -2 -8 -10 -17 -17 -16 -13 -17 -12 -4 4 13 16 21 21 21
13z m8940 -47 c15 -28 5 -23 -15 7 -9 15 -12 23 -6 20 6 -4 16 -16 21 -27z
m-1142 -9 c13 -16 18 -30 12 -30 -5 0 -10 4 -10 8 0 5 -9 18 -20 30 -12 12
-17 22 -12 22 4 0 18 -13 30 -30z m-7818 16 c0 -2 -8 -10 -17 -17 -16 -13 -17
-12 -4 4 13 16 21 21 21 13z m166 -34 c-17 -16 -18 -16 -5 5 7 12 15 20 18 17
3 -2 -3 -12 -13 -22z m9853 -6 c-3 -3 -11 5 -18 17 -13 21 -12 21 5 5 10 -10
16 -20 13 -22z m-11955 0 c-3 -9 -10 -16 -15 -16 -5 0 -4 9 3 20 14 22 21 20
12 -4z m1049 -1 c-3 -9 -8 -14 -10 -11 -3 3 -2 9 2 15 9 16 15 13 8 -4z m848
-18 c-10 -9 -11 -8 -5 6 3 10 9 15 12 12 3 -3 0 -11 -7 -18z m1123 -26 c-16
-22 -32 -41 -36 -41 -4 0 7 20 25 44 40 54 49 52 11 -3z m8767 4 c7 -13 3 -12
-10 5 -11 14 -21 30 -21 35 0 11 14 -7 31 -40z m1036 23 c-3 -8 -6 -5 -6 6 -1
11 2 17 5 13 3 -3 4 -12 1 -19z m-3012 -40 c16 -24 22 -38 14 -31 -15 12 -53
73 -46 73 2 0 17 -19 32 -42z m929 26 c5 -14 4 -15 -9 -4 -17 14 -19 20 -6 20
5 0 12 -7 15 -16z m-10763 -17 c-10 -9 -11 -8 -5 6 3 10 9 15 12 12 3 -3 0
-11 -7 -18z m1043 -14 c-9 -21 -20 -42 -25 -48 -9 -9 15 56 28 78 12 20 10 3
-3 -30z m859 12 c-3 -9 -8 -14 -10 -11 -3 3 -2 9 2 15 9 16 15 13 8 -4z
m10965 -10 c-3 -3 -9 2 -12 12 -6 14 -5 15 5 6 7 -7 10 -15 7 -18z m-10768 11
c0 -3 -4 -8 -10 -11 -5 -3 -10 -1 -10 4 0 6 5 11 10 11 6 0 10 -2 10 -4z
m8690 -31 c14 -19 14 -19 -2 -6 -10 7 -18 18 -18 24 0 6 1 8 3 6 1 -2 9 -13
17 -24z m2264 9 c3 -8 2 -12 -4 -9 -6 3 -10 10 -10 16 0 14 7 11 14 -7z
m-13061 -6 c-5 -7 -15 -32 -23 -56 -7 -23 -15 -40 -18 -38 -9 10 32 106 45
106 3 0 1 -6 -4 -12z m12907 -67 c11 -29 19 -55 17 -57 -2 -2 -16 26 -30 63
-15 37 -23 62 -18 57 5 -5 19 -33 31 -63z m-11034 27 c-9 -12 -16 -19 -16 -15
0 11 24 47 28 42 2 -2 -3 -14 -12 -27z m9978 7 c3 -8 1 -15 -3 -15 -5 0 -11 7
-15 15 -3 8 -1 15 3 15 5 0 11 -7 15 -15z m1229 -5 c3 -11 1 -18 -4 -14 -5 3
-9 12 -9 20 0 20 7 17 13 -6z m-3183 -21 c15 -28 5 -23 -15 7 -9 15 -12 23 -6
20 6 -4 16 -16 21 -27z m-6916 -4 c-9 -14 -18 -25 -21 -25 -5 0 5 18 20 38 17
22 18 13 1 -13z m-1966 -5 c-7 -10 -14 -18 -15 -16 -6 6 9 36 18 36 5 0 4 -9
-3 -20z m1017 -34 c-36 -62 -42 -59 -9 4 15 28 29 49 31 46 3 -2 -7 -25 -22
-50z m8805 34 c6 -11 7 -20 2 -20 -6 0 -12 9 -15 20 -3 11 -3 20 -1 20 2 0 8
-9 14 -20z m191 -7 c13 -16 12 -17 -3 -4 -10 7 -18 15 -18 17 0 8 8 3 21 -13z
m842 -5 c9 -31 2 -33 -11 -3 -6 14 -8 25 -3 25 5 0 11 -10 14 -22z m181 6 c3
-8 2 -12 -4 -9 -6 3 -10 10 -10 16 0 14 7 11 14 -7z m-2114 -45 c15 -28 5 -23
-15 7 -9 15 -12 23 -6 20 6 -4 16 -16 21 -27z m3171 5 c5 -15 8 -29 5 -31 -2
-2 -8 10 -14 26 -13 38 -5 41 9 5z m-12118 -12 c-3 -12 -9 -22 -14 -22 -5 0
-3 11 3 25 13 30 20 28 11 -3z m1943 -10 c-15 -15 -15 -15 -4 10 7 15 15 23
17 17 2 -6 -4 -18 -13 -27z m-2976 18 c0 -5 -5 -10 -11 -10 -5 0 -7 5 -4 10 3
6 8 10 11 10 2 0 4 -4 4 -10z m853 -5 c-3 -9 -8 -14 -10 -11 -3 3 -2 9 2 15 9
16 15 13 8 -4z m1024 0 c0 -8 -4 -12 -9 -9 -5 3 -6 10 -3 15 9 13 12 11 12 -6z
m10062 -25 c11 -24 11 -24 -3 -6 -9 11 -16 24 -16 30 0 12 5 7 19 -24z m-1010
-25 c0 -5 -6 -1 -14 9 -8 11 -15 24 -15 30 0 5 7 1 15 -10 8 -10 14 -23 14
-29z m-10939 22 c0 -7 -7 -22 -15 -33 -13 -17 -13 -16 -3 14 13 34 18 40 18
19z m12993 -7 c3 -11 1 -18 -4 -14 -5 3 -9 12 -9 20 0 20 7 17 13 -6z m-11132
-13 c-10 -9 -11 -8 -5 6 3 10 9 15 12 12 3 -3 0 -11 -7 -18z m10283 7 c3 -8 2
-12 -4 -9 -6 3 -10 10 -10 16 0 14 7 11 14 -7z m-11127 -16 c-3 -8 -6 -5 -6 6
-1 11 2 17 5 13 3 -3 4 -12 1 -19z m12161 -9 c-3 -8 -7 -3 -11 10 -4 17 -3 21
5 13 5 -5 8 -16 6 -23z m-10247 -35 c-17 -27 -31 -46 -31 -42 0 10 54 98 58
94 2 -2 -10 -26 -27 -52z m7103 40 c3 -8 2 -12 -4 -9 -6 3 -10 10 -10 16 0 14
7 11 14 -7z m1104 -9 c-3 -3 -9 2 -12 12 -6 14 -5 15 5 6 7 -7 10 -15 7 -18z
m-10305 -5 c-3 -12 -8 -19 -11 -16 -5 6 5 36 12 36 2 0 2 -9 -1 -20z m11154
-32 c7 -16 11 -28 9 -28 -8 0 -36 58 -35 72 0 9 2 8 6 -2 3 -8 12 -27 20 -42z
m-10144 22 c-3 -11 -10 -23 -16 -27 -5 -3 -8 -2 -5 3 3 5 8 17 11 27 9 24 16
22 10 -3z m9117 0 c6 -11 8 -20 6 -20 -3 0 -10 9 -16 20 -6 11 -8 20 -6 20 3
0 10 -9 16 -20z m1194 4 c3 -8 2 -12 -4 -9 -6 3 -10 10 -10 16 0 14 7 11 14
-7z m856 6 c0 -5 -2 -10 -4 -10 -3 0 -8 5 -11 10 -3 6 -1 10 4 10 6 0 11 -4
11 -10z m-12025 -75 c-12 -38 -21 -78 -19 -88 3 -15 0 -16 -11 -7 -10 8 -11
18 -5 33 4 12 18 48 30 80 31 78 33 68 5 -18z m-1012 50 c-3 -9 -8 -14 -10
-11 -3 3 -2 9 2 15 9 16 15 13 8 -4z m2045 -5 c-7 -10 -14 -17 -17 -15 -4 4
18 35 25 35 2 0 -1 -9 -8 -20z m11182 -15 c0 -5 -5 -3 -10 5 -5 8 -10 20 -10
25 0 6 5 3 10 -5 5 -8 10 -19 10 -25z m-12389 -8 c-10 -9 -11 -8 -5 6 3 10 9
15 12 12 3 -3 0 -11 -7 -18z m9260 6 c13 -16 12 -17 -3 -4 -17 13 -22 21 -14
21 2 0 10 -8 17 -17z m2104 -3 c-3 -5 -1 -11 5 -15 5 -3 10 -14 9 -23 0 -12
-4 -9 -11 8 -15 35 -18 51 -7 44 5 -3 7 -9 4 -14z m-1186 -24 c-3 -3 -11 5
-18 17 -13 21 -12 21 5 5 10 -10 16 -20 13 -22z m-11019 20 c0 -3 -4 -8 -10
-11 -5 -3 -10 -1 -10 4 0 6 5 11 10 11 6 0 10 -2 10 -4z m1841 -23 c-12 -20
-14 -14 -5 12 4 9 9 14 11 11 3 -2 0 -13 -6 -23z m11405 -6 c8 -41 63 -181 79
-200 10 -12 43 -51 74 -87 l56 -65 -75 69 c-77 70 -85 84 -122 206 -30 100
-32 106 -23 97 5 -4 10 -13 11 -20z m-12716 3 c0 -5 -5 -10 -11 -10 -5 0 -7 5
-4 10 3 6 8 10 11 10 2 0 4 -4 4 -10z m37 4 c-3 -3 -12 -4 -19 -1 -8 3 -5 6 6
6 11 1 17 -2 13 -5z m83 -6 c0 -4 -4 -8 -9 -8 -6 0 -12 4 -15 8 -3 5 1 9 9 9
8 0 15 -4 15 -9z m9474 -4 c3 -8 2 -12 -4 -9 -6 3 -10 10 -10 16 0 14 7 11 14
-7z m2955 -39 c0 -5 -6 1 -14 15 -8 14 -14 30 -14 35 0 6 6 -1 14 -15 8 -14
14 -29 14 -35z m-13109 8 c-11 -17 -11 -17 -6 0 3 10 6 24 7 30 0 9 2 9 5 0 3
-7 0 -20 -6 -30z m427 21 c-3 -3 -12 -4 -19 -1 -8 3 -5 6 6 6 11 1 17 -2 13
-5z m376 -1 c-7 -2 -19 -2 -25 0 -7 3 -2 5 12 5 14 0 19 -2 13 -5z m1247 3 c0
-8 -69 -141 -70 -133 0 4 13 35 29 67 16 32 27 61 23 64 -3 3 0 6 6 6 7 0 12
-2 12 -4z m9018 -21 c-3 -3 -9 2 -12 12 -6 14 -5 15 5 6 7 -7 10 -15 7 -18z
m-10691 9 c-3 -3 -12 -4 -19 -1 -8 3 -5 6 6 6 11 1 17 -2 13 -5z m470 0 c-3
-3 -12 -4 -19 -1 -8 3 -5 6 6 6 11 1 17 -2 13 -5z m1006 -9 c-3 -9 -8 -14 -10
-11 -3 3 -2 9 2 15 9 16 15 13 8 -4z m10597 11 c0 -2 -9 -6 -20 -9 -11 -3 -18
-1 -14 4 5 9 34 13 34 5z m477 -2 c-3 -3 -12 -4 -19 -1 -8 3 -5 6 6 6 11 1 17
-2 13 -5z m-664 -24 c3 -11 1 -18 -4 -14 -5 3 -9 12 -9 20 0 20 7 17 13 -6z
m-11963 6 c0 -2 -7 -7 -16 -10 -8 -3 -12 -2 -9 4 6 10 25 14 25 6z m12065 -6
c-3 -5 -12 -10 -18 -10 -7 0 -6 4 3 10 19 12 23 12 15 0z m-9448 -18 c-10 -10
-14 -22 -10 -27 5 -4 2 -5 -5 -1 -11 6 -10 12 4 27 9 10 19 19 22 19 3 0 -2
-8 -11 -18z m8181 -25 c7 -16 8 -26 3 -23 -5 3 -14 20 -20 38 -13 38 0 26 17
-15z m1218 21 c-9 -5 -22 -7 -29 -4 -7 2 -4 5 6 5 10 1 15 5 12 11 -4 6 1 7
11 3 15 -6 15 -7 0 -15z m-12076 8 c0 -2 -7 -7 -16 -10 -8 -3 -12 -2 -9 4 6
10 25 14 25 6z m1600 -6 c0 -5 -5 -10 -11 -10 -5 0 -7 5 -4 10 3 6 8 10 11 10
2 0 4 -4 4 -10z m11260 1 c0 6 5 7 10 4 6 -3 10 -11 10 -17 0 -12 -50 -2 -65
13 -6 7 0 6 18 0 18 -7 27 -7 27 0z m-2900 -21 c6 -11 8 -20 6 -20 -3 0 -10 9
-16 20 -6 11 -8 20 -6 20 3 0 10 -9 16 -20z m1080 -5 c14 -19 14 -19 -2 -6
-10 7 -18 18 -18 24 0 6 1 8 3 6 1 -2 9 -13 17 -24z m-9450 -3 c0 -5 -7 -17
-15 -28 -14 -18 -14 -17 -4 9 12 27 19 34 19 19z m-1867 -47 c-3 -9 -8 -14
-10 -11 -3 3 -2 9 2 15 9 16 15 13 8 -4z m127 11 c0 -2 -7 -7 -16 -10 -8 -3
-12 -2 -9 4 6 10 25 14 25 6z m11027 -3 c-4 -3 1 -16 10 -27 18 -21 18 -21 -4
-2 -25 21 -30 36 -11 36 6 0 8 -3 5 -7z m-8247 -22 c-5 -11 -15 -23 -21 -27
-6 -3 -3 5 6 20 20 30 30 35 15 7z m9221 -22 c-45 -37 -53 -29 -9 9 18 17 35
28 38 25 3 -3 -10 -18 -29 -34z m-12061 17 c0 -2 -22 -20 -49 -39 l-49 -35 11
35 c7 22 13 30 17 21 4 -13 10 -12 35 3 34 20 35 20 35 15z m1751 -43 c-12
-20 -14 -14 -5 12 4 9 9 14 11 11 3 -2 0 -13 -6 -23z m9378 -33 c6 -19 8 -30
3 -25 -5 6 -15 26 -21 45 -6 19 -8 30 -3 25 5 -6 15 -26 21 -45z m-8335 -5
c-9 -14 -18 -25 -21 -25 -5 0 5 18 20 38 17 22 18 13 1 -13z m-1063 -12 c-12
-20 -14 -14 -5 12 4 9 9 14 11 11 3 -2 0 -13 -6 -23z m180 4 c-6 -8 -7 -18 -3
-22 4 -5 1 -5 -6 -1 -10 6 -10 11 -1 22 6 8 14 14 16 14 3 0 0 -6 -6 -13z
m8354 -7 c3 -5 1 -10 -4 -10 -6 0 -11 5 -11 10 0 6 2 10 4 10 3 0 8 -4 11 -10z
m1063 -31 c-3 -8 -7 -3 -11 10 -4 17 -3 21 5 13 5 -5 8 -16 6 -23z m-9617 -16
c-12 -20 -14 -14 -5 12 4 9 9 14 11 11 3 -2 0 -13 -6 -23z m189 13 c0 -2 -9
-23 -20 -47 -11 -24 -20 -38 -20 -31 0 7 7 26 15 41 8 16 11 31 8 35 -4 3 -1
6 5 6 7 0 12 -2 12 -4z m8388 -21 c-3 -3 -9 2 -12 12 -6 14 -5 15 5 6 7 -7 10
-15 7 -18z m882 -18 c0 -5 -4 -5 -10 -2 -5 3 -10 14 -10 23 0 15 2 15 10 2 5
-8 10 -19 10 -23z m-8415 13 c3 -5 1 -10 -4 -10 -6 0 -11 5 -11 10 0 6 2 10 4
10 3 0 8 -4 11 -10z m9955 -6 c0 -2 -14 -4 -31 -4 -16 0 -28 4 -25 9 5 8 56 3
56 -5z m-12225 -4 c-3 -5 -16 -10 -28 -10 -12 0 -59 -13 -104 -28 -46 -16 -83
-25 -83 -22 0 7 112 45 175 59 22 5 41 9 43 10 2 1 0 -3 -3 -9z m128 3 c3 -5
-21 -8 -53 -8 -32 0 -56 3 -53 8 2 4 26 7 53 7 27 0 51 -3 53 -7z m53 -11
c-10 -2 -22 0 -28 6 -6 6 0 7 19 4 21 -5 23 -7 9 -10z m11944 15 c-10 -8 -80
-16 -80 -8 0 4 19 8 42 10 23 1 40 0 38 -2z m-11900 -17 c0 -5 -2 -10 -4 -10
-3 0 -8 5 -11 10 -3 6 -1 10 4 10 6 0 11 -4 11 -10z m31 -7 c13 -16 12 -17 -3
-4 -10 7 -18 15 -18 17 0 8 8 3 21 -13z m10622 -13 c3 -11 2 -20 -3 -20 -4 0
-10 11 -12 25 -6 29 7 25 15 -5z m1430 23 c-7 -2 -21 -2 -30 0 -10 3 -4 5 12
5 17 0 24 -2 18 -5z m-303 -7 c0 -7 -40 -14 -44 -7 -3 4 6 8 20 9 13 1 24 0
24 -2z m354 -5 c4 -5 -3 -7 -14 -4 -23 6 -26 13 -6 13 8 0 17 -4 20 -9z
m-12039 -19 c-3 -3 -11 0 -18 7 -9 10 -8 11 6 5 10 -3 15 -9 12 -12z m1926 -5
c-10 -9 -11 -8 -5 6 3 10 9 15 12 12 3 -3 0 -11 -7 -18z m7587 -2 c-3 -3 -9 2
-12 12 -6 14 -5 15 5 6 7 -7 10 -15 7 -18z m865 5 c3 -11 1 -18 -4 -14 -5 3
-9 12 -9 20 0 20 7 17 13 -6z m1702 10 c3 -6 -1 -7 -9 -4 -18 7 -21 14 -7 14
6 0 13 -4 16 -10z m-1056 -27 c-36 -44 -44 -48 -82 -42 -51 8 -57 18 -9 15 28
-2 47 4 68 21 34 27 41 29 23 6z m531 2 c-7 -8 -17 -15 -23 -15 -6 0 -2 7 9
15 25 19 30 19 14 0z m580 5 c8 -5 11 -10 5 -10 -5 0 -17 5 -25 10 -8 5 -10
10 -5 10 6 0 17 -5 25 -10z m646 -122 c14 -16 32 -28 40 -28 9 0 13 -4 10 -8
-3 -5 -18 -7 -33 -5 -22 4 -36 16 -56 51 -15 26 -39 63 -54 82 -23 31 10 -2
93 -92z m-13342 93 c-10 -10 -21 -17 -23 -15 -2 2 -10 -1 -18 -7 -7 -6 -13 -7
-13 -2 0 5 15 17 33 26 42 21 44 21 21 -2z m661 9 c3 -5 1 -10 -4 -10 -6 0
-11 5 -11 10 0 6 2 10 4 10 3 0 8 -4 11 -10z m506 -7 c13 -16 12 -17 -3 -4
-10 7 -18 15 -18 17 0 8 8 3 21 -13z m257 -14 c-6 -16 -12 -28 -14 -26 -5 5
13 57 20 57 3 0 0 -14 -6 -31z m186 16 c-4 -8 -8 -15 -10 -15 -2 0 -4 7 -4 15
0 8 4 15 10 15 5 0 7 -7 4 -15z m857 -8 c-10 -9 -11 -8 -5 6 3 10 9 15 12 12
3 -3 0 -11 -7 -18z m8710 -13 c15 3 30 2 33 -2 2 -4 -8 -8 -23 -9 -15 -1 -34
-3 -41 -5 -8 -2 -14 2 -15 9 0 6 -3 15 -7 19 -5 4 -8 12 -8 18 0 6 7 0 16 -13
13 -18 23 -22 45 -17z m894 16 c-3 -5 -12 -10 -18 -10 -7 0 -6 4 3 10 19 12
23 12 15 0z m-12888 -6 c-5 -6 -40 -13 -87 -19 -30 -4 -28 -3 10 8 48 14 85
19 77 11z m10917 -10 c3 -8 2 -12 -4 -9 -6 3 -10 10 -10 16 0 14 7 11 14 -7z
m1936 2 c0 -2 -12 -11 -27 -20 l-28 -17 24 20 c23 21 31 25 31 17z m-10839
-23 c13 -16 12 -17 -3 -4 -10 7 -18 15 -18 17 0 8 8 3 21 -13z m1245 -20 c-8
-15 -15 -25 -16 -21 0 12 23 58 27 54 3 -2 -2 -17 -11 -33z m-3391 17 c-3 -5
-11 -10 -17 -10 -7 0 -42 -16 -79 -35 -38 -19 -71 -35 -76 -35 -12 0 27 25 92
59 61 31 91 39 80 21z m885 5 c0 -3 -17 -16 -37 -29 -57 -36 -183 -164 -183
-185 0 -5 -7 -11 -15 -15 -8 -3 -14 -11 -13 -17 2 -6 -4 -14 -12 -16 -12 -4
-12 -3 -2 5 8 5 13 12 12 16 -5 17 108 145 169 194 61 48 81 60 81 47z m12924
-33 c16 -12 25 -22 20 -22 -5 0 -23 13 -39 28 -34 30 -25 27 19 -6z m-12093
11 c13 -17 13 -17 -6 -3 -11 8 -22 16 -24 17 -2 2 0 3 6 3 6 0 17 -8 24 -17z
m11130 -70 c-43 -43 -81 -85 -84 -93 -5 -13 -6 -13 -6 1 -1 18 145 166 167
169 1 0 -33 -35 -77 -77z m-10320 44 c-10 -9 -11 -8 -5 6 3 10 9 15 12 12 3
-3 0 -11 -7 -18z m8550 6 c13 -16 12 -17 -3 -4 -10 7 -18 15 -18 17 0 8 8 3
21 -13z m-9316 -21 c-3 -3 -11 0 -18 7 -9 10 -8 11 6 5 10 -3 15 -9 12 -12z
m595 14 c0 -3 -4 -8 -10 -11 -5 -3 -10 -1 -10 4 0 6 5 11 10 11 6 0 10 -2 10
-4z m-77 -43 c31 1 57 -1 57 -5 0 -9 0 -9 -74 -11 -55 -2 -59 -1 -73 28 l-16
30 25 -22 c19 -18 34 -22 81 -20z m9636 8 c-13 -11 -26 -18 -28 -16 -6 7 24
34 38 35 7 0 3 -8 -10 -19z m1962 -8 l24 -28 -30 25 c-16 14 -32 26 -34 28 -2
1 0 2 6 2 5 0 20 -12 34 -27z m-12075 -5 l19 -23 -25 20 c-14 11 -27 21 -29
22 -2 2 0 3 6 3 5 0 18 -10 29 -22z m-1992 -11 c-11 -5 -33 -21 -49 -36 -17
-14 -12 -7 10 15 22 23 44 39 49 37 5 -3 0 -10 -10 -16z m-169 -19 c-1 -13 -3
-29 -4 -35 0 -7 -6 -13 -11 -13 -7 0 -8 6 -2 16 5 9 7 25 5 35 -3 11 -1 19 4
19 6 0 9 -10 8 -22z m14872 16 c-3 -3 -12 -4 -19 -1 -8 3 -5 6 6 6 11 1 17 -2
13 -5z m-2664 -19 c-3 -9 -8 -14 -10 -11 -3 3 -2 9 2 15 9 16 15 13 8 -4z
m2088 -27 c16 -24 17 -28 3 -13 -10 11 -25 26 -33 33 -9 7 -10 12 -4 12 7 0
22 -15 34 -32z m673 23 c3 -4 -6 -6 -19 -3 -14 2 -25 6 -25 8 0 8 39 4 44 -5z
m-12058 -17 c10 -8 13 -12 6 -9 -8 4 -26 11 -40 15 -22 7 -23 8 -6 9 11 1 29
-6 40 -15z m-696 -4 c0 -6 8 -20 19 -31 10 -11 27 -37 37 -57 10 -20 27 -49
37 -64 10 -16 15 -28 11 -28 -3 0 -1 -7 6 -15 9 -10 9 -15 1 -15 -6 0 -11 5
-11 10 0 19 -2 25 -21 52 -10 14 -19 29 -19 33 0 4 -15 28 -33 54 -46 64 -50
71 -38 71 6 0 11 -5 11 -10z m1471 -13 c-10 -9 -11 -8 -5 6 3 10 9 15 12 12 3
-3 0 -11 -7 -18z m7797 -2 c-3 -3 -9 2 -12 12 -6 14 -5 15 5 6 7 -7 10 -15 7
-18z m702 22 c0 -2 -10 -12 -22 -23 l-23 -19 19 23 c18 21 26 27 26 19z m2856
-10 c4 -4 0 -7 -9 -7 -9 0 -18 4 -21 9 -7 10 20 9 30 -2z m-14991 -54 c-15
-16 -46 -55 -68 -88 -32 -50 -38 -55 -33 -30 3 17 8 44 11 60 4 17 8 39 9 50
2 11 4 23 5 28 0 4 5 7 9 7 5 0 7 -13 4 -30 -2 -16 -2 -30 1 -30 3 0 22 15 43
34 45 40 60 39 19 -1z m14299 -23 c14 -22 23 -40 20 -40 -4 0 -1 -8 7 -17 30
-38 39 -62 26 -69 -6 -4 -9 -4 -5 0 4 5 -4 26 -18 47 -13 21 -22 39 -18 39 3
0 -3 12 -14 28 -26 37 -34 52 -29 52 2 0 16 -18 31 -40z m-10681 5 c-3 -9 -8
-14 -10 -11 -3 3 -2 9 2 15 9 16 15 13 8 -4z m9386 -65 c-22 -38 -44 -72 -49
-75 -5 -3 10 28 33 70 23 41 45 75 49 75 4 0 -11 -31 -33 -70z m-1525 14 c3
-8 2 -12 -4 -9 -6 3 -10 10 -10 16 0 14 7 11 14 -7z m-10814 -27 c19 -10 26
-15 15 -11 -69 20 -164 24 -238 10 -16 -3 -25 -1 -22 5 4 5 10 7 14 5 4 -3 13
-1 21 4 24 15 171 5 210 -13z m2485 3 c10 -11 16 -20 13 -20 -3 0 -13 9 -23
20 -10 11 -16 20 -13 20 3 0 13 -9 23 -20z m9535 13 c0 -5 -24 -8 -52 -8 -72
1 -159 -16 -187 -37 -14 -11 -15 -10 -1 5 8 9 33 22 55 29 46 15 185 23 185
11z m-11779 -30 c-12 -20 -14 -14 -5 12 4 9 9 14 11 11 3 -2 0 -13 -6 -23z
m11829 17 c18 -12 2 -12 -25 0 -13 6 -15 9 -5 9 8 0 22 -4 30 -9z m95 -38 c-6
-6 -75 21 -75 29 0 4 18 0 39 -9 22 -9 38 -19 36 -20z m-12075 -8 c0 -2 -11 2
-25 8 -14 6 -25 15 -25 20 0 5 11 1 25 -8 14 -9 25 -18 25 -20z m11670 7 c0
-5 -7 -12 -16 -15 -14 -5 -15 -4 -4 9 14 17 20 19 20 6z m-12095 -11 c-3 -5
-12 -10 -18 -10 -7 0 -6 4 3 10 19 12 23 12 15 0z m471 -17 c-6 -6 -36 9 -36
18 0 5 9 4 20 -3 10 -7 18 -14 16 -15z m2415 10 c13 -16 12 -17 -3 -4 -10 7
-18 15 -18 17 0 8 8 3 21 -13z m-2921 -17 c0 -2 -7 -7 -16 -10 -8 -3 -12 -2
-9 4 6 10 25 14 25 6z m2013 -48 c9 -21 14 -38 11 -38 -5 0 -34 64 -34 76 0
12 7 0 23 -38z m9217 32 c0 -5 -4 -10 -10 -10 -5 0 -10 5 -10 10 0 6 5 10 10
10 6 0 10 -4 10 -10z m1427 4 c-3 -3 -12 -4 -19 -1 -8 3 -5 6 6 6 11 1 17 -2
13 -5z m-1009 -36 c-8 -12 -21 -24 -28 -26 -8 -3 -6 5 6 21 23 32 42 36 22 5z
m-11698 -2 c0 -2 -7 -9 -15 -16 -13 -11 -14 -10 -9 4 5 14 24 23 24 12z m2349
-1 c-8 -7 -79 -13 -83 -6 -3 4 16 7 41 8 25 2 44 1 42 -2z m81 -9 c48 -8 109
-27 114 -35 3 -5 -13 -2 -35 5 -45 16 -74 22 -106 23 -13 1 -23 5 -23 11 0 5
6 7 13 5 6 -2 23 -6 37 -9z m12081 3 c8 -5 -31 -6 -91 -3 -58 4 -107 8 -110
11 -9 8 188 0 201 -8z m-12321 -3 c0 -2 -7 -7 -16 -10 -8 -3 -12 -2 -9 4 6 10
25 14 25 6z m43 -3 c-7 -2 -19 -2 -25 0 -7 3 -2 5 12 5 14 0 19 -2 13 -5z
m1058 -20 c-12 -20 -14 -14 -5 12 4 9 9 14 11 11 3 -2 0 -13 -6 -23z m10976
21 c-3 -3 -12 -4 -19 -1 -8 3 -5 6 6 6 11 1 17 -2 13 -5z m313 -15 c0 -13 -13
-11 -35 5 -18 13 -18 14 8 9 15 -3 27 -9 27 -14z m-12437 4 c-7 -2 -19 -2 -25
0 -7 3 -2 5 12 5 14 0 19 -2 13 -5z m928 -10 c13 -16 12 -17 -3 -4 -10 7 -18
15 -18 17 0 8 8 3 21 -13z m8226 1 c-3 -4 -2 -16 4 -28 10 -20 9 -20 -5 -2
-14 17 -13 36 1 36 4 0 3 -3 0 -6z m3323 -4 c8 -5 12 -11 10 -14 -3 -2 -14 2
-24 10 -22 15 -10 19 14 4z m-14670 -33 c-24 -40 -60 -143 -54 -150 3 -3 1 -8
-4 -11 -11 -6 -11 -2 3 54 10 45 55 140 66 140 5 0 0 -15 -11 -33z m12083 9
c-10 -13 -20 -22 -22 -20 -4 4 29 44 36 44 2 0 -4 -11 -14 -24z m-9435 -2 c18
-8 32 -17 32 -19 0 -6 -32 6 -46 16 -6 5 -14 6 -17 2 -4 -3 -7 -1 -7 5 0 15 1
15 38 -4z m12102 -9 c28 -14 50 -31 49 -38 0 -9 -2 -9 -6 1 -2 6 -8 12 -13 12
-4 0 -28 11 -51 25 -57 32 -43 32 21 0z m-11415 5 c3 -5 1 -10 -4 -10 -6 0
-11 5 -11 10 0 6 2 10 4 10 3 0 8 -4 11 -10z m-151 -49 c-5 -6 -34 20 -34 30
0 5 8 1 18 -8 10 -10 17 -20 16 -22z m8226 29 c-8 -5 -26 -9 -40 -9 -23 1 -23
2 5 9 43 11 52 11 35 0z m-8700 -10 c0 -5 -4 -10 -10 -10 -5 0 -10 5 -10 10 0
6 5 10 10 10 6 0 10 -4 10 -10z m9336 -48 c-8 -22 -12 -42 -10 -45 3 -3 1 -8
-5 -11 -6 -4 -8 2 -6 15 7 36 27 91 31 86 2 -2 -2 -22 -10 -45z m-9256 -9 c30
-27 56 -51 58 -55 2 -3 14 -19 28 -35 39 -43 133 -213 119 -213 -4 0 -38 59
-40 70 -2 10 -44 75 -77 120 -36 49 -68 81 -126 129 -20 17 -32 30 -27 31 6 0
35 -21 65 -47z m12139 -57 c14 -15 31 -34 39 -42 7 -8 10 -14 5 -14 -4 0 0 -5
10 -11 9 -5 17 -17 17 -24 0 -8 3 -15 8 -15 4 0 13 -15 21 -32 7 -18 19 -45
26 -60 8 -16 10 -28 6 -28 -5 0 -16 21 -26 46 -28 74 -133 204 -202 251 -13 8
-23 20 -23 25 0 13 86 -56 119 -96z m-11708 37 c13 -16 12 -17 -3 -4 -10 7
-18 15 -18 17 0 8 8 3 21 -13z m73 -30 c-4 -16 -10 -32 -15 -37 -4 -5 -5 -15
-2 -22 11 -30 -14 -12 -30 21 -21 44 -22 60 -1 22 18 -33 29 -29 37 13 4 16 9
30 12 30 3 0 2 -12 -1 -27z m8732 -28 c-1 -8 -5 -17 -8 -21 -5 -4 -4 16 1 34
3 9 9 -1 7 -13z m-12082 -31 c3 -8 2 -12 -4 -9 -6 3 -10 10 -10 16 0 14 7 11
14 -7z m-9 -23 c3 -5 2 -12 -3 -15 -5 -3 -9 1 -9 9 0 17 3 19 12 6z m-179 -59
c-8 -7 -96 -10 -91 -2 2 3 24 6 50 6 25 1 43 -1 41 -4z m94 4 c0 -3 -4 -8 -10
-11 -5 -3 -10 -1 -10 4 0 6 5 11 10 11 6 0 10 -2 10 -4z m11940 -7 c0 -4 -11
-6 -24 -5 -13 0 -22 4 -20 8 6 9 44 6 44 -3z m40 5 c0 -8 -19 -13 -24 -6 -3 5
1 9 9 9 8 0 15 -2 15 -3z m37 0 c-3 -3 -12 -4 -19 -1 -8 3 -5 6 6 6 11 1 17
-2 13 -5z m-12237 -12 c0 -4 -12 -8 -27 -9 -24 -1 -25 -1 -8 7 26 11 35 12 35
2z m12080 -2 c0 -4 -12 -7 -26 -7 -14 0 -21 3 -15 7 7 3 18 7 26 7 8 0 15 -4
15 -7z m-12140 -8 c0 -5 -6 -9 -12 -9 -68 -3 -277 -95 -365 -160 -63 -47 -229
-216 -248 -253 -9 -17 -21 -30 -28 -30 -8 0 -9 3 -1 8 6 4 19 22 29 40 11 17
23 32 27 32 4 0 8 5 8 11 0 18 151 162 215 206 78 52 218 120 297 143 77 22
78 22 78 12z m12076 1 c-2 -3 -8 -5 -13 -5 -4 0 -16 -4 -25 -9 -12 -6 -18 -6
-18 0 0 5 8 11 18 13 24 5 43 6 38 1z m-67 -17 c-15 -13 -49 -25 -49 -17 0 5
8 12 18 14 24 6 36 8 31 3z m-153 -66 c-97 -48 -132 -59 -81 -26 14 9 25 14
25 12 0 -3 30 11 67 30 37 19 72 34 78 34 5 -1 -35 -23 -89 -50z m3658 -42
c13 -61 18 -93 12 -88 -3 3 -7 19 -10 35 -3 17 -10 45 -15 63 -5 18 -6 30 -2
27 5 -2 12 -19 15 -37z m-3775 -22 c-2 -2 -22 -16 -44 -30 -73 -49 -187 -170
-247 -261 -32 -49 -58 -86 -58 -81 0 19 112 176 164 231 62 63 177 157 185
150 2 -3 2 -7 0 -9z m-8291 -34 c7 -34 10 -212 4 -212 -4 0 -8 42 -9 93 0 50
-4 105 -7 121 -5 30 5 28 12 -2z m12089 -114 c-3 -8 -6 -5 -6 6 -1 11 2 17 5
13 3 -3 4 -12 1 -19z m-12080 -135 c1 -24 0 -25 -6 -8 -7 17 -6 35 2 35 2 0 3
-12 4 -27z m3 -53 c0 -11 -2 -20 -4 -20 -2 0 -6 9 -9 20 -3 11 -1 20 4 20 5 0
9 -9 9 -20z m-4130 -14 c0 -3 -4 -8 -10 -11 -5 -3 -10 -1 -10 4 0 6 5 11 10
11 6 0 10 -2 10 -4z m16233 -3 c-7 -2 -19 -2 -25 0 -7 3 -2 5 12 5 14 0 19 -2
13 -5z m-11980 -10 c-7 -2 -19 -2 -25 0 -7 3 -2 5 12 5 14 0 19 -2 13 -5z m97
-7 c14 -2 32 -5 40 -8 8 -3 37 -14 63 -23 67 -24 54 -28 -15 -5 -31 10 -70 21
-85 24 -53 9 -76 15 -82 21 -3 4 8 3 24 0 17 -4 41 -8 55 -9z m12033 7 c-7 -2
-19 -2 -25 0 -7 3 -2 5 12 5 14 0 19 -2 13 -5z m41 -1 c3 -5 -1 -9 -9 -9 -8 0
-12 4 -9 9 3 4 7 8 9 8 2 0 6 -4 9 -8z m85 -21 c23 -7 41 -14 39 -16 -2 -3
-22 1 -44 7 -21 6 -42 12 -46 12 -3 1 -9 4 -13 8 -8 8 5 6 64 -11z m-16519 5
c0 -3 -4 -8 -10 -11 -5 -3 -10 -1 -10 4 0 6 5 11 10 11 6 0 10 -2 10 -4z
m12061 -29 c-10 -9 -11 -8 -5 6 3 10 9 15 12 12 3 -3 0 -11 -7 -18z m4573 -36
c-2 -3 -12 3 -22 13 -16 17 -16 18 5 5 12 -7 20 -15 17 -18z m-16691 -57 c-14
-41 -27 -73 -29 -71 -7 6 42 147 50 147 3 0 -7 -34 -21 -76z m12100 56 c-3
-11 -10 -23 -16 -27 -5 -3 -8 -2 -5 3 3 5 8 17 11 27 9 24 16 22 10 -3z
m-12135 -187 c-6 -27 -14 -52 -19 -57 -5 -5 -5 5 1 22 10 38 10 36 10 62 0 11
4 20 9 20 5 0 4 -21 -1 -47z m12076 -15 c-2 -23 -7 -44 -9 -47 -3 -3 -4 15 -1
40 5 50 5 49 10 49 2 0 2 -19 0 -42z m-7186 -53 c-3 -3 -9 2 -12 12 -6 14 -5
15 5 6 7 -7 10 -15 7 -18z m12086 -1 c5 -14 4 -15 -9 -4 -17 14 -19 20 -6 20
5 0 12 -7 15 -16z m-16992 -29 c-2 -14 -6 -25 -8 -25 -2 0 -4 11 -4 25 0 14 4
25 9 25 4 0 6 -11 3 -25z m12083 -105 c0 -71 -3 -126 -8 -121 -15 15 -9 251 6
251 1 0 2 -58 2 -130z m4951 35 c6 -19 8 -35 4 -35 -4 0 -12 18 -18 41 -12 48
-4 44 14 -6z m-17040 -25 c0 -33 -2 -57 -5 -55 -7 8 -9 115 -2 115 4 0 7 -27
7 -60z m4961 -2 c-3 -8 -6 -5 -6 6 -1 11 2 17 5 13 3 -3 4 -12 1 -19z m12102
-71 c5 -27 5 -47 0 -47 -5 0 -9 12 -9 28 0 15 -3 38 -7 52 -3 14 -3 22 1 19 3
-3 10 -27 15 -52z m-12084 23 c3 -5 1 -10 -4 -10 -6 0 -11 5 -11 10 0 6 2 10
4 10 3 0 8 -4 11 -10z m5 -113 c0 -45 -4 -87 -8 -94 -4 -6 -7 33 -7 87 0 54 3
96 8 93 4 -2 7 -41 7 -86z m-4982 48 c-3 -3 -9 2 -12 12 -6 14 -5 15 5 6 7 -7
10 -15 7 -18z m17067 -25 c3 -5 1 -10 -4 -10 -6 0 -11 5 -11 10 0 6 2 10 4 10
3 0 8 -4 11 -10z m-4969 -46 c2 -16 7 -36 10 -44 3 -10 2 -12 -5 -5 -5 6 -12
28 -15 49 -4 22 -4 37 -1 34 3 -3 8 -18 11 -34z m4974 16 c0 -5 -4 -10 -10
-10 -5 0 -10 5 -10 10 0 6 5 10 10 10 6 0 10 -4 10 -10z m-17063 -42 c-3 -7
-5 -2 -5 12 0 14 2 19 5 13 2 -7 2 -19 0 -25z m17053 -3 c0 -14 -4 -25 -9 -25
-4 0 -6 11 -3 25 2 14 6 25 8 25 2 0 4 -11 4 -25z m-4952 -60 c-3 -3 -9 2 -12
12 -6 14 -5 15 5 6 7 -7 10 -15 7 -18z m4948 9 c-3 -9 -6 -20 -6 -25 0 -5 -5
-9 -10 -9 -7 0 -7 6 -1 19 6 10 7 21 4 25 -3 3 -1 6 6 6 8 0 11 -6 7 -16z
m-17023 -14 c3 -11 1 -18 -4 -14 -5 3 -9 12 -9 20 0 20 7 17 13 -6z m4937 -10
c0 -5 -5 -10 -11 -10 -5 0 -7 5 -4 10 3 6 8 10 11 10 2 0 4 -4 4 -10z m7154
-16 c3 -8 2 -12 -4 -9 -6 3 -10 10 -10 16 0 14 7 11 14 -7z m-7169 -23 c-8
-26 -16 -63 -17 -78 -1 -7 -5 -10 -10 -7 -4 3 -3 14 2 25 6 10 9 19 6 19 -3 0
0 14 5 30 12 33 24 42 14 11z m12080 -18 c-3 -16 -11 -32 -16 -37 -5 -6 -4 5
1 25 6 18 10 35 10 36 0 2 3 3 6 3 3 0 3 -12 -1 -27z m-16975 -3 c0 -5 -2 -10
-4 -10 -3 0 -8 5 -11 10 -3 6 -1 10 4 10 6 0 11 -4 11 -10z m12090 -20 c0 -5
-2 -10 -4 -10 -3 0 -8 5 -11 10 -3 6 -1 10 4 10 6 0 11 -4 11 -10z m-12076
-16 c3 -8 2 -12 -4 -9 -6 3 -10 10 -10 16 0 14 7 11 14 -7z m12104 -53 c33
-62 46 -85 61 -103 8 -10 10 -18 4 -18 -5 0 -18 17 -29 38 -11 20 -33 59 -47
85 -15 27 -23 46 -18 43 5 -3 18 -24 29 -45z m-12068 -31 c0 -13 -5 -5 -35 52
-4 7 3 2 14 -12 11 -14 21 -32 21 -40z m4865 -40 c3 -6 -1 -7 -9 -4 -18 7 -21
14 -7 14 6 0 13 -4 16 -10z m-4819 -32 c9 -18 22 -37 28 -43 6 -7 22 -27 36
-45 71 -93 256 -238 338 -264 12 -4 22 -11 22 -16 0 -11 -69 25 -155 81 -76
50 -171 137 -227 209 -36 45 -73 110 -64 110 3 0 13 -14 22 -32z m4881 1 c46
-26 75 -50 68 -58 -4 -3 -9 -1 -13 5 -4 6 -29 25 -57 42 -57 36 -55 43 2 11z
m12144 -46 c13 -16 30 -41 37 -58 18 -41 31 -115 21 -115 -5 0 -9 15 -9 33 -1
61 -55 146 -113 176 -15 8 -27 18 -27 22 0 13 64 -28 91 -58z m-4887 -36 c10
-12 28 -33 40 -47 32 -38 144 -131 204 -169 29 -18 51 -35 48 -38 -3 -4 -101
59 -150 97 -66 51 -187 186 -185 207 0 4 6 0 12 -10 7 -10 20 -28 31 -40z
m-7161 -14 c21 -41 29 -83 17 -83 -5 0 -10 11 -10 25 0 15 -7 39 -15 55 -9 17
-13 30 -11 30 3 0 12 -12 19 -27z m24 -130 c-4 -36 -22 -93 -30 -93 -2 0 2 21
8 48 7 26 11 55 9 65 -1 9 1 17 7 17 5 0 8 -17 6 -37z m12079 -25 c-3 -13 -5
-23 -6 -23 -1 0 -3 -8 -5 -18 -4 -21 -13 -33 -20 -26 -2 3 1 16 8 29 14 27 17
35 17 50 0 6 2 10 5 10 3 0 3 -10 1 -22z m-4587 -114 c14 -12 -19 -1 -35 12
-18 14 -18 14 6 3 14 -6 27 -13 29 -15z m4541 6 c-6 -11 -16 -20 -23 -20 -7 0
-6 4 3 10 8 5 11 10 5 10 -5 0 -3 5 5 10 21 14 22 13 10 -10z m-16575 -28 c-3
-3 -11 0 -18 7 -9 10 -8 11 6 5 10 -3 15 -9 12 -12z m4475 8 c0 -5 -10 -15
-22 -21 l-23 -12 20 21 c23 24 25 25 25 12z m7610 -5 c17 -9 30 -18 30 -21 0
-4 -59 23 -69 32 -10 9 13 3 39 -11z m-11975 -43 c-5 -5 -77 18 -89 29 -5 4
14 1 42 -8 29 -9 50 -19 47 -21z m12040 10 c-3 -3 -11 0 -18 7 -9 10 -8 11 6
5 10 -3 15 -9 12 -12z m-7725 -2 c0 -5 -5 -10 -11 -10 -5 0 -7 5 -4 10 3 6 8
10 11 10 2 0 4 -4 4 -10z m-4234 -23 c4 -3 -4 -4 -16 -2 -30 6 -40 16 -12 12
12 -2 24 -6 28 -10z m4204 3 c0 -5 -5 -10 -11 -10 -5 0 -7 5 -4 10 3 6 8 10
11 10 2 0 4 -4 4 -10z m-4160 -10 c0 -5 -4 -10 -9 -10 -6 0 -13 5 -16 10 -3 6
1 10 9 10 9 0 16 -4 16 -10z m352 -3 c114 -2 209 -5 212 -7 2 -3 -100 -4 -227
-4 -307 2 -327 2 -327 13 0 5 30 7 68 4 37 -2 160 -5 274 -6z m11743 3 c3 -5
1 -10 -4 -10 -6 0 -11 5 -11 10 0 6 2 10 4 10 3 0 8 -4 11 -10z m172 -4 c7 -3
13 -2 13 3 0 5 12 6 28 4 15 -2 186 -5 379 -6 194 -1 353 -4 353 -7 0 -5 -792
-6 -897 -1 -18 0 -33 5 -33 9 0 8 134 6 157 -2z m-11663 -8 c-3 -4 -9 -8 -15
-8 -5 0 -9 4 -9 8 0 5 7 9 15 9 8 0 12 -4 9 -9z m60 1 c3 -3 -4 -5 -14 -6 -11
-1 -22 2 -24 6 -5 8 30 8 38 0z m100 -1 c-5 -7 -70 -5 -78 2 -2 3 15 5 39 5
24 0 41 -3 39 -7z m51 2 c3 -5 1 -10 -4 -10 -6 0 -11 5 -11 10 0 6 2 10 4 10
3 0 8 -4 11 -10z m72 4 c-2 -3 -17 -7 -33 -10 -17 -2 -24 -1 -17 4 13 8 58 14
50 6z m43 -4 c8 -5 11 -10 5 -10 -5 0 -17 5 -25 10 -8 5 -10 10 -5 10 6 0 17
-5 25 -10z m184 2 c3 -5 -1 -9 -9 -9 -8 0 -12 4 -9 9 3 4 7 8 9 8 2 0 6 -4 9
-8z m87 -10 c-7 -2 -18 1 -23 6 -8 8 -4 9 13 5 13 -4 18 -8 10 -11z m73 10 c3
-5 -1 -9 -9 -9 -8 0 -12 4 -9 9 3 4 7 8 9 8 2 0 6 -4 9 -8z m46 -2 c8 -5 11
-10 5 -10 -5 0 -17 5 -25 10 -8 5 -10 10 -5 10 6 0 17 -5 25 -10z m114 2 c2
-4 -4 -8 -14 -8 -10 0 -16 4 -14 8 3 4 9 8 14 8 5 0 11 -4 14 -8z m11686 -3
c0 -8 -56 -6 -64 2 -3 3 10 5 29 5 19 0 35 -3 35 -7z m200 1 c0 -7 -177 -7
-184 0 -2 3 38 5 90 5 52 0 94 -2 94 -5z m125 -1 c-5 -7 -101 -6 -109 1 -2 3
22 5 54 5 32 0 57 -2 55 -6z m39 -1 c-3 -4 -9 -8 -15 -8 -5 0 -9 4 -9 8 0 5 7
9 15 9 8 0 12 -4 9 -9z m229 2 c-7 -7 -213 -7 -213 0 0 3 49 5 109 5 60 0 107
-2 104 -5z m51 -2 c-3 -4 -12 -8 -20 -8 -8 0 -13 4 -10 8 3 5 12 9 20 9 8 0
13 -4 10 -9z m81 0 c3 -3 -8 -4 -25 -3 -17 1 -33 5 -36 8 -3 3 8 5 25 3 17 -1
33 -5 36 -8z m39 0 c-3 -4 -9 -8 -15 -8 -5 0 -9 4 -9 8 0 5 7 9 15 9 8 0 12
-4 9 -9z m120 1 c-4 -7 -93 -3 -100 4 -3 3 19 4 49 3 31 0 53 -4 51 -7z m119
1 c-7 -8 -83 -9 -83 -1 0 3 20 6 44 6 24 0 42 -2 39 -5z m52 0 c3 -5 1 -10 -4
-10 -6 0 -11 5 -11 10 0 6 2 10 4 10 3 0 8 -4 11 -10z m69 -1 c-2 -4 -15 -6
-30 -6 -14 0 -21 2 -15 6 5 4 19 7 30 7 11 0 18 -3 15 -7z m119 1 c-7 -7 -103
-7 -98 0 2 3 26 5 53 5 28 0 48 -2 45 -5z m81 2 c2 -4 -11 -7 -29 -7 -18 0
-32 2 -30 5 5 9 53 11 59 2z m40 -4 c-3 -4 -9 -8 -15 -8 -5 0 -9 4 -9 8 0 5 7
9 15 9 8 0 12 -4 9 -9z m80 3 c5 -7 -52 -6 -60 2 -2 2 9 4 26 5 16 0 32 -3 34
-7z m40 -3 c-3 -4 -9 -8 -15 -8 -5 0 -9 4 -9 8 0 5 7 9 15 9 8 0 12 -4 9 -9z
m70 0 c-2 -4 -14 -5 -26 -3 -32 7 -32 13 1 11 16 0 27 -4 25 -8z m50 0 c-3 -4
-12 -8 -20 -8 -8 0 -13 4 -10 8 3 5 12 9 20 9 8 0 13 -4 10 -9z m80 3 c-8 -9
-44 -11 -44 -3 0 4 11 8 25 8 13 0 22 -2 19 -5z m40 -3 c-3 -4 -9 -8 -15 -8
-5 0 -9 4 -9 8 0 5 7 9 15 9 8 0 12 -4 9 -9z m40 0 c-3 -4 -9 -8 -15 -8 -5 0
-9 4 -9 8 0 5 7 9 15 9 8 0 12 -4 9 -9z m80 3 c-8 -8 -64 -10 -64 -2 0 4 16 7
35 7 19 0 32 -2 29 -5z m40 -3 c-3 -4 -9 -8 -15 -8 -5 0 -9 4 -9 8 0 5 7 9 15
9 8 0 12 -4 9 -9z m40 0 c-3 -4 -9 -8 -15 -8 -5 0 -9 4 -9 8 0 5 7 9 15 9 8 0
12 -4 9 -9z m40 0 c-3 -4 -9 -8 -15 -8 -5 0 -9 4 -9 8 0 5 7 9 15 9 8 0 12 -4
9 -9z m40 0 c-3 -4 -9 -8 -15 -8 -5 0 -9 4 -9 8 0 5 7 9 15 9 8 0 12 -4 9 -9z
m40 0 c-3 -4 -9 -8 -15 -8 -5 0 -9 4 -9 8 0 5 7 9 15 9 8 0 12 -4 9 -9z m40 0
c-3 -4 -9 -8 -15 -8 -5 0 -9 4 -9 8 0 5 7 9 15 9 8 0 12 -4 9 -9z m196 2 c0
-3 -40 -6 -90 -6 -49 0 -90 3 -90 6 0 3 41 6 90 6 50 0 90 -3 90 -6z m330 1
c0 -7 -306 -8 -313 -1 -3 3 66 5 154 6 87 0 159 -2 159 -5z m434 0 c-7 -7
-424 -8 -424 -1 0 3 97 6 215 6 118 0 212 -2 209 -5z m-15167 -7 c-3 -3 -12
-4 -19 -1 -8 3 -5 6 6 6 11 1 17 -2 13 -5z"/>
</g>
</svg>
