<?xml version="1.0" encoding="UTF-8" standalone="no"?>
<svg xmlns="http://www.w3.org/2000/svg" viewBox="0 0 223.93248 119.50249" x="0px" y="0px" version="1.1"
     width="223.93248" height="119.50249" style="fill:#000000">
    <g transform="translate(-0.04035176,-0.01751326)">
        <path style="fill:#000000;fill-opacity:1"
              d="M 227.45,119.62 A 11.9,11.9 0 0 0 219,106.14 102,102 0 0 0 16.38,100.29 a 16.52,16.52 0 0 0 6,31.9 H 71.7 a 7.15,7.15 0 0 0 7.14,-7.07 6.62,6.62 0 0 0 -2.37,-5.5 11.91,11.91 0 0 0 -5.85,-12.39 47.29,47.29 0 0 1 92.47,-4.5 16.5,16.5 0 0 0 10.25,29.45 h 49.33 a 7.15,7.15 0 0 0 7.14,-7.07 6.62,6.62 0 0 0 -2.36,-5.49 z m -110.12,-102 a 97.14,97.14 0 0 1 95.31,79 12.21,12.21 0 0 0 -6.53,-1.89 h -0.54 a 13.12,13.12 0 0 0 -3.5,-4.12 88.05,88.05 0 0 0 -170.16,2.73 8.73,8.73 0 0 0 -2,-0.26 9,9 0 0 0 -8.1,5.08 97.14,97.14 0 0 1 95.52,-80.49 z m 60.74,75.85 a 64.3,64.3 0 0 0 -121.91,1.4 c -0.34,0 -0.68,0 -1,0 H 54.62 A 13.11,13.11 0 0 0 48,88.93 a 73.94,73.94 0 0 1 139,1 13.42,13.42 0 0 0 -3.83,3.48 8.78,8.78 0 0 0 -2.36,-0.33 9,9 0 0 0 -2.74,0.44 z M 188.82,89 A 75.93,75.93 0 0 0 46.1,88.32 13.14,13.14 0 0 0 34.64,90.92 86,86 0 0 1 199.5,89.15 13.33,13.33 0 0 0 193.93,87.93 13.11,13.11 0 0 0 188.82,89 Z M 72.65,117.55 a 7.32,7.32 0 0 1 -0.35,2.32 l -0.55,1.65 1.55,0.78 a 2.7,2.7 0 0 1 1.55,2.6 v 0.1 a 3.15,3.15 0 0 1 -3.14,3.14 H 22.38 a 12.53,12.53 0 0 1 0,-25.05 h 2.24 l 0.26,-1.69 a 5.06,5.06 0 0 1 5,-4.36 5.54,5.54 0 0 1 2.34,0.57 l 1.7,0.79 0.89,-1.65 a 9.4,9.4 0 0 1 8.19,-4.81 9.18,9.18 0 0 1 8.58,5.78 l 0.57,1.43 1.72,-0.21 a 10.28,10.28 0 0 1 1.31,-0.11 8.3,8.3 0 0 1 8.29,8.29 v 2.49 l 1.88,0.11 a 7.84,7.84 0 0 1 7.3,7.83 z m 44.68,-55.18 a 52.37,52.37 0 0 0 -50.83,40.09 12.33,12.33 0 0 0 -8.35,-7.25 62.3,62.3 0 0 1 118.1,-0.87 9.08,9.08 0 0 0 -3.93,4.82 16.4,16.4 0 0 0 -4.74,1 52.38,52.38 0 0 0 -50.25,-37.79 z M 225.82,125 a 3.15,3.15 0 0 1 -3.14,3.14 h -49.33 a 12.53,12.53 0 0 1 0,-25.05 h 2.24 l 0.26,-1.69 a 5.06,5.06 0 0 1 5,-4.36 5.54,5.54 0 0 1 2.34,0.57 l 1.7,0.79 0.89,-1.65 a 9.4,9.4 0 0 1 8.15,-4.86 9.18,9.18 0 0 1 8.58,5.78 l 0.57,1.43 1.72,-0.21 a 10.22,10.22 0 0 1 1.31,-0.11 8.3,8.3 0 0 1 8.29,8.29 v 2.49 l 1.88,0.11 a 7.84,7.84 0 0 1 7.35,7.84 7.32,7.32 0 0 1 -0.35,2.32 l -0.55,1.65 1.55,0.78 a 2.7,2.7 0 0 1 1.55,2.6 V 125 Z"
              transform="translate(-5.85,-12.67)"/>
        <path d="m 16.464664,83.826974 c 0,-0.489712 1.281002,-5.857834 1.979568,-8.295508 C 24.299847,55.09806 36.767024,37.076503 53.850374,24.351172 65.278704,15.838247 78.946269,9.7949099 93.09607,6.9980473 c 5.746586,-1.1358754 10.21696,-1.6009039 16.658,-1.7328386 7.6979,-0.1576797 13.53715,0.3494775 20.72771,1.8002672 8.53267,1.721578 15.829,4.2138011 23.71482,8.1003181 24.82892,12.236915 43.25997,34.500595 50.59843,61.120086 0.7843,2.844991 1.77573,7.089653 1.6786,7.18677 -0.0376,0.03762 -0.41807,-0.109998 -0.84545,-0.328036 -1.05837,-0.539941 -3.39587,-1.117508 -4.52273,-1.117508 -0.81568,0 -0.9876,-0.07218 -1.43988,-0.604495 -0.28248,-0.332472 -1.15265,-1.335992 -1.9337,-2.230043 l -1.4201,-1.625549 -1.28147,-3.768409 c -3.40919,-10.025337 -8.21226,-18.863572 -14.63712,-26.934083 -2.44689,-3.073634 -10.48084,-11.160885 -13.36268,-13.45134 -8.55735,-6.80127 -17.62857,-11.77417 -27.45682,-15.051996 -9.01316,-3.005986 -18.71894,-4.593757 -28.06375,-4.590958 -32.567535,0.0098 -62.188232,17.751994 -77.815566,46.610065 -3.044411,5.621935 -5.441237,11.699319 -7.45518,18.90333 l -0.298986,1.069491 h -1.629713 c -2.905989,0 -4.499704,0.632494 -6.641052,2.63562 -0.729079,0.682018 -1.204769,1.012986 -1.204769,0.838235 z"
              style="fill:#ff0000;fill-opacity:1"/>
        <path d="m 29.112566,77.564194 c 0,-0.345361 1.623259,-5.105761 2.505608,-7.347996 1.091224,-2.773027 3.739777,-8.265733 5.293236,-10.977388 12.929047,-22.568408 35.439934,-38.121512 61.098231,-42.213666 7.585369,-1.209764 16.882629,-1.345998 24.439419,-0.358113 12.79867,1.673143 25.1246,6.214926 35.9325,13.240188 8.12037,5.278332 15.86041,12.503829 21.64706,20.20801 5.44439,7.248496 9.54826,14.932545 12.59804,23.588442 0.4956,1.406614 0.87404,2.55748 0.84098,2.55748 -0.0331,0 -0.54414,-0.166532 -1.13574,-0.37007 -2.6111,-0.898353 -5.77524,-0.91861 -8.27958,-0.053 l -1.00794,0.348384 -1.07045,-2.66471 C 175.16987,56.584239 162.34232,42.568487 146.01266,34.22942 c -4.40833,-2.251201 -8.63299,-3.923672 -13.39522,-5.30294 -14.77579,-4.279459 -30.57572,-3.956541 -45.194326,0.923682 -17.088318,5.7047 -31.474641,17.174986 -40.881714,32.595185 -1.81369,2.973025 -4.242999,7.803527 -5.43587,10.808829 l -0.910534,2.293983 -0.565754,-0.113989 c -3.065673,-0.617685 -6.537976,0.004 -9.294926,1.664133 -1.195083,0.719641 -1.22175,0.729812 -1.22175,0.465891 z"
              style="fill:#ffff00;fill-opacity:1"/>
        <path d="M 48.318365,81.293846 C 47.633882,80.09508 45.893525,78.355463 44.39368,77.370831 43.619831,76.862806 42.883121,76.44715 42.756548,76.44715 c -0.488399,0 -0.417365,-0.422252 0.428361,-2.546328 1.606436,-4.034636 4.194054,-8.866507 7.003437,-13.077551 6.95861,-10.430415 16.993839,-19.250035 28.324172,-24.893146 11.457155,-5.706276 24.677952,-8.446259 36.996382,-7.667423 18.96489,1.199062 35.64969,8.791169 48.73577,22.176312 6.94865,7.107446 12.03755,14.891396 15.78728,24.14815 l 1.01715,2.510981 -0.49763,0.371997 c -0.2737,0.204598 -1.10969,0.955441 -1.85776,1.668541 l -1.36013,1.296544 -2.17557,0.0101 c -1.19655,0.0056 -2.32009,0.07899 -2.49673,0.163186 -0.35855,0.170892 -0.26587,0.339864 -1.41922,-2.587322 -3.94264,-10.0063 -10.9745,-19.519862 -19.39232,-26.2363 -12.04928,-9.613925 -26.89618,-14.604258 -42.1068,-14.152911 -16.659784,0.494347 -31.877676,7.025343 -43.631357,18.725076 -2.986337,2.97263 -4.688919,4.957123 -6.885106,8.025131 -3.522782,4.921222 -6.488954,10.578 -8.367536,15.957703 l -0.589173,1.687217 -0.767177,-0.0015 c -0.697268,-0.0013 -0.805181,-0.06799 -1.184226,-0.731828 z"
              style="fill:#00ff00;fill-opacity:1"/>
        <path d="M 60.01927,88.324532 C 58.734752,86.005746 56.049633,83.73948 53.549402,82.863903 l -1.137965,-0.398513 0.597669,-1.660631 c 3.182185,-8.84173 8.288329,-16.717136 15.186472,-23.422695 9.590469,-9.32272 21.257926,-15.043063 34.758412,-17.041421 3.27511,-0.484786 10.29261,-0.670149 13.7639,-0.363566 23.65203,2.088939 43.99654,17.237946 52.64707,39.202259 l 0.93844,2.382774 -0.61346,0.460787 c -1.1171,0.839086 -2.2032,2.127695 -2.78619,3.305684 -0.54455,1.100336 -0.61124,1.163006 -1.24728,1.172129 -0.36957,0.0053 -1.39334,0.195316 -2.27503,0.422254 l -1.60307,0.412614 -0.51014,-1.584743 c -1.75798,-5.461061 -4.67192,-10.950552 -8.44278,-15.905152 -1.79406,-2.357234 -6.24204,-6.851119 -8.70053,-8.790307 -8.20422,-6.471263 -17.62961,-10.24283 -28.0373,-11.219124 -2.89348,-0.271423 -9.05435,-0.128828 -11.73864,0.271693 -9.211269,1.374414 -17.111877,4.667161 -24.551807,10.23249 -2.909294,2.176256 -7.863805,7.121492 -9.987453,9.968762 -3.939773,5.282227 -6.842677,11.039868 -8.573426,17.004591 l -0.610814,2.105063 z"
              style="fill:#0000ff;fill-opacity:1"/>
        <path d="m 14.615501,115.15184 c -4.7638378,-0.883 -8.738588,-4.67594 -9.8474598,-9.39703 -0.643781,-2.74093 -0.2126565,-6.004549 1.137623,-8.61182 1.0575587,-2.042051 3.4031258,-4.319277 5.4548618,-5.295926 1.944251,-0.925485 3.76495,-1.344133 5.845628,-1.344133 1.787312,0 1.562072,0.217569 1.971792,-1.904632 0.267677,-1.386469 1.143485,-2.67607 2.301388,-3.388725 0.745968,-0.459122 1.157691,-0.573648 2.262915,-0.629459 1.213909,-0.0613 1.503281,-0.0024 2.851021,0.580282 l 1.499986,0.648506 0.826492,-1.432894 c 3.905841,-6.771577 13.155457,-6.619392 16.490755,0.271325 0.402466,0.831489 0.731754,1.620773 0.731754,1.753963 0,0.166986 0.164409,0.209282 0.529597,0.136245 0.291278,-0.05826 1.150786,-0.16221 1.910019,-0.23101 3.440602,-0.311779 6.609191,1.53392 8.141176,4.742222 0.638509,1.337178 0.675165,1.519377 0.737038,3.663436 l 0.06511,2.256274 1.329976,0.123567 c 2.678053,0.248816 4.57193,1.116298 5.948745,2.724797 1.868402,2.182802 2.365095,5.120192 1.346129,7.960852 -0.160569,0.44764 -0.291943,0.88215 -0.291943,0.96559 0,0.0834 0.514509,0.42594 1.143354,0.7611 1.420761,0.75726 1.830994,1.37966 1.831927,2.77939 9.3e-4,1.30769 -0.507636,2.13843 -1.667704,2.72448 l -0.828404,0.4185 -25.209893,-0.0168 c -19.808747,-0.0132 -25.488841,-0.0685 -26.511883,-0.25812 z"
              style="fill:#ffffff;fill-opacity:1"/>
        <path d="m 165.88017,115.23577 c -4.84515,-0.82282 -8.86462,-4.51943 -10.08978,-9.27931 -0.39381,-1.53001 -0.39431,-4.55926 -0.001,-6.060601 0.93729,-3.577853 3.3567,-6.511979 6.69497,-8.119285 1.81567,-0.874209 3.57429,-1.266144 5.70036,-1.270413 l 1.60839,-0.0032 0.21621,-1.241575 c 0.27631,-1.586666 0.55529,-2.24144 1.33185,-3.125892 0.88159,-1.004082 2.2069,-1.580407 3.63948,-1.58267 1.19883,-0.0019 1.33465,0.03404 3.07386,0.813198 l 1.06226,0.47589 0.70398,-1.342947 c 2.45692,-4.686968 7.89662,-6.471941 12.54693,-4.117128 0.47715,0.241618 1.38287,0.916406 2.01272,1.499528 0.90957,0.842104 1.3242,1.426691 2.01542,2.841543 l 0.87027,1.781321 0.92999,-0.123323 c 3.52813,-0.467852 6.02767,0.318937 8.05288,2.534834 1.61775,1.770076 2.27004,3.679028 2.27004,6.643343 v 1.453828 h 0.80283 c 3.36687,0 6.13289,1.62052 7.50509,4.396999 0.92791,1.87748 1.06171,3.7709 0.41938,5.93459 -0.36862,1.2417 -0.39194,1.47473 -0.16158,1.6147 0.14807,0.09 0.69665,0.40503 1.21908,0.70015 1.08968,0.61555 1.56111,1.40319 1.56111,2.60823 0,1.00293 -0.62525,2.12469 -1.4809,2.65688 l -0.65808,0.40931 -25.4818,0.0259 c -14.015,0.0142 -25.87878,-0.0415 -26.36396,-0.12389 z"
              style="fill:#ffffff;fill-opacity:1"/>
    </g>
</svg>
